<?xml version="1.0" encoding="utf-8"?>
<!-- Generator: Adobe Illustrator 16.0.0, SVG Export Plug-In . SVG Version: 6.00 Build 0)  -->
<!DOCTYPE svg PUBLIC "-//W3C//DTD SVG 1.1//EN" "http://www.w3.org/Graphics/SVG/1.1/DTD/svg11.dtd">
<svg version="1.1" id="Layer_1" xmlns="http://www.w3.org/2000/svg" xmlns:xlink="http://www.w3.org/1999/xlink" x="0px" y="0px"
	 width="501.246px" height="87.345px" viewBox="0 0 501.246 87.345" enable-background="new 0 0 501.246 87.345"
	 xml:space="preserve">
<polygon points="127.073,47.607 127.073,51.948 106.776,51.948 106.776,64.269 124.578,64.269 124.578,68.611 106.776,68.611 
	106.776,86.359 101.62,86.359 101.62,47.607 "/>
<path d="M148.186,86.358v-4.449h-0.109c-0.976,1.736-2.226,3.011-3.745,3.824c-1.519,0.814-3.311,1.222-5.372,1.222
	c-1.846,0-3.384-0.242-4.613-0.731c-1.231-0.49-2.226-1.187-2.987-2.091c-0.758-0.904-1.292-1.981-1.601-3.229
	c-0.306-1.248-0.46-2.632-0.46-4.152V58.299h4.612v18.996c0,1.736,0.508,3.111,1.521,4.125c1.011,1.014,2.404,1.519,4.179,1.519
	c1.41,0,2.633-0.216,3.662-0.651c1.032-0.434,1.892-1.048,2.578-1.844c0.688-0.795,1.204-1.729,1.548-2.796
	c0.343-1.066,0.515-2.233,0.515-3.5V58.299h4.612v28.06H148.186z"/>
<path d="M161.373,58.299v4.45h0.106c1.918-3.399,4.96-5.102,9.12-5.102c1.846,0,3.383,0.253,4.614,0.761
	c1.229,0.506,2.224,1.213,2.984,2.117c0.759,0.904,1.292,1.979,1.602,3.229c0.306,1.248,0.46,2.632,0.46,4.152v18.452h-4.614V67.363
	c0-1.736-0.505-3.111-1.519-4.125c-1.013-1.014-2.405-1.52-4.178-1.52c-1.41,0-2.633,0.217-3.663,0.649
	c-1.032,0.437-1.891,1.051-2.577,1.847c-0.688,0.797-1.205,1.729-1.548,2.795c-0.346,1.068-0.516,2.234-0.516,3.501v15.848h-4.612
	v-28.06H161.373z"/>
<path d="M205.497,86.359v-3.801h-0.109c-0.76,1.557-1.953,2.679-3.583,3.365c-1.628,0.688-3.418,1.031-5.373,1.031
	c-2.17,0-4.061-0.398-5.67-1.193c-1.611-0.796-2.95-1.862-4.016-3.203c-1.067-1.337-1.873-2.894-2.416-4.667
	c-0.542-1.771-0.813-3.655-0.813-5.645s0.261-3.87,0.787-5.644c0.524-1.772,1.319-3.319,2.388-4.642
	c1.066-1.319,2.405-2.369,4.017-3.146c1.607-0.779,3.479-1.167,5.615-1.167c0.724,0,1.502,0.071,2.335,0.218
	c0.833,0.144,1.666,0.388,2.496,0.731c0.832,0.346,1.62,0.796,2.361,1.356c0.742,0.562,1.365,1.258,1.873,2.091h0.109V47.607h4.615
	v38.752H205.497z M188.916,76.399c0.343,1.247,0.87,2.361,1.575,3.338c0.705,0.976,1.609,1.755,2.712,2.333
	c1.104,0.58,2.397,0.869,3.881,0.869c1.556,0,2.877-0.307,3.962-0.923c1.085-0.614,1.971-1.42,2.66-2.415
	c0.687-0.995,1.184-2.125,1.492-3.392c0.307-1.266,0.461-2.551,0.461-3.854c0-1.374-0.163-2.704-0.487-3.988
	c-0.327-1.285-0.843-2.415-1.548-3.392c-0.705-0.979-1.62-1.764-2.739-2.361c-1.123-0.597-2.479-0.896-4.072-0.896
	c-1.556,0-2.875,0.309-3.962,0.923c-1.085,0.617-1.953,1.431-2.604,2.443c-0.651,1.014-1.123,2.171-1.413,3.474
	c-0.288,1.302-0.434,2.642-0.434,4.017C188.4,73.875,188.573,75.151,188.916,76.399z"/>
<path fill="#296DB5" d="M78.604,74.316c-0.868-0.307-1.741-0.612-2.594-0.923c-0.792-0.288-1.566-0.576-2.343-0.864
	c-0.674-0.252-1.354-0.501-2.02-0.752c-0.855-0.322-1.694-0.647-2.531-0.973c-0.565-0.218-1.132-0.436-1.689-0.655
	c-0.888-0.347-1.765-0.698-2.639-1.05c-0.477-0.193-0.956-0.387-1.428-0.58c-0.915-0.374-1.817-0.75-2.711-1.126
	c-0.407-0.171-0.814-0.344-1.216-0.514c-0.915-0.393-1.819-0.781-2.715-1.174c-0.364-0.163-0.728-0.322-1.091-0.485
	c-0.901-0.4-1.794-0.804-2.672-1.206c-2.082-0.956-4.1-1.915-6.041-2.88c-1.143-0.567-2.255-1.135-3.346-1.702
	c-0.074-0.041-0.15-0.075-0.224-0.117c-1.141-0.596-2.257-1.194-3.34-1.792c-0.017-0.01-0.035-0.019-0.051-0.029
	c-15.475-8.552-24.922-17.174-26.163-24.84c4.631-0.183,8.069-0.066,11.734,0.092c-0.268,7.586,8.889,16.347,24.73,25.016
	c5.149-5.771,7.371-11.062,6.035-15.512c-1.579-5.266-7.963-8.774-17.96-10.6l0.004-0.016c0,0-1.706-0.386-5.334-0.758
	c-2.226-0.25-4.571-0.442-7.062-0.559c-0.002,0.005-0.002,0.012-0.002,0.02c-2.534-0.135-4.269-0.131-8.938-0.171
	C10.269,30.109,0,31.065,0,31.065l0.008,0.001H0v56.278h6.152c16.404-8.114,29.587-16.353,38.374-24.002
	c1.71,0.877,3.476,1.755,5.307,2.631c-9.066,6.924-21.123,14.188-35.537,21.371h70.877V80.01v-3.42
	c-1.572-0.528-3.122-1.06-4.657-1.594C79.873,74.77,79.241,74.544,78.604,74.316"/>
<path fill="#296DB5" d="M0,2.17v25.109c5.21-0.574,10.195-0.995,14.942-1.269c6.122-10.77,32.88-16.044,70.23-15.236V2.17H0z"/>
<path fill="#296DB5" d="M67.882,38.772c1.842,6.143-2.53,13.755-11.765,22.046c8.329,4.133,18.108,8.215,29.058,12.098V14.443
	c-27.719-0.053-48.232,3.78-56.123,11.191C50.929,25.844,65.298,30.156,67.882,38.772"/>
<polygon points="128.339,30.083 128.339,2 136.13,2 136.13,42.01 127.728,42.01 111.312,13.37 111.312,42.01 103.521,42.01 
	103.521,2.055 112.313,2 "/>
<path d="M147.178,24.258h12.187c-0.186-1.929-0.816-3.45-1.892-4.563s-2.541-1.669-4.396-1.669c-1.966,0-3.487,0.834-4.563,2.504
	C147.919,21.458,147.475,22.7,147.178,24.258 M167.043,33.329c-0.928,3.153-2.578,5.519-4.953,7.095
	c-2.374,1.577-5.287,2.365-8.736,2.365c-4.452,0-7.911-1.373-10.378-4.118c-2.467-2.745-3.701-6.548-3.701-11.408
	c0-4.971,1.233-8.82,3.701-11.546c2.467-2.727,6-4.09,10.601-4.09c4.377,0,7.791,1.484,10.239,4.452
	c2.449,2.968,3.673,6.956,3.673,11.964l-0.056,1.28h-20.367c0.223,2.226,0.705,3.877,1.447,4.953
	c1.076,1.521,2.838,2.282,5.287,2.282c1.373,0,2.541-0.316,3.505-0.946c0.965-0.631,1.54-1.391,1.725-2.282H167.043z"/>
<polygon points="192.67,12.406 197.178,33.774 201.853,12.406 209.81,12.406 201.352,42.01 193.338,42.01 188.664,20.196 
	183.99,42.01 175.977,42.01 167.629,12.406 175.921,12.406 180.595,33.83 184.769,12.406 "/>
<path d="M222.527,34.108c0,1.002,0.195,1.642,0.584,1.92c0.39,0.278,1.141,0.417,2.253,0.417l2.003-0.167v5.955l-4.563,0.111
	c-2.894,0-4.961-0.473-6.204-1.419c-1.243-0.946-1.865-2.587-1.865-4.924V17.97l-4.006-0.056v-5.509h4.006V4.393h7.791v8.013h4.841
	v5.509l-4.841,0.056V34.108z"/>
<path d="M250.992,27.208c0-2.894-0.594-5.12-1.781-6.677c-1.187-1.559-2.968-2.337-5.342-2.337c-2.375,0-4.155,0.779-5.342,2.337
	c-1.187,1.558-1.781,3.784-1.781,6.677c0,2.894,0.594,5.12,1.781,6.678s2.968,2.337,5.342,2.337c2.374,0,4.155-0.779,5.342-2.337
	C250.398,32.327,250.992,30.102,250.992,27.208 M259.005,27.208c0,4.712-1.373,8.486-4.118,11.324s-6.417,4.257-11.018,4.257
	c-4.601,0-8.273-1.419-11.019-4.257c-2.745-2.838-4.117-6.612-4.117-11.324c0-4.711,1.373-8.486,4.117-11.324
	c2.746-2.838,6.418-4.257,11.019-4.257c4.6,0,8.272,1.419,11.018,4.257C257.632,18.722,259.005,22.496,259.005,27.208z"/>
<path d="M289.362,42.01h-7.791V23.646c0-1.892-0.398-3.273-1.196-4.146c-0.798-0.872-2.105-1.308-3.923-1.308
	c-1.967,0-3.469,0.649-4.508,1.948c-1.038,1.298-1.558,3.098-1.558,5.398V42.01h-7.791V12.406h7.457v4.396
	c1.15-1.966,2.513-3.32,4.09-4.062c1.576-0.742,3.218-1.113,4.925-1.113c3.153,0,5.657,0.891,7.513,2.671
	c1.854,1.78,2.782,4.192,2.782,7.234V42.01z"/>
<rect x="292.619" y="22.812" width="15.525" height="7.234"/>
<path d="M318.357,17.692h9.46c1.967,0,3.497-0.38,4.591-1.141c1.095-0.76,1.642-1.845,1.642-3.255c0-1.521-0.501-2.625-1.502-3.311
	c-1.002-0.686-2.504-1.029-4.508-1.029h-9.683V17.692z M329.209,42.01h-18.864V2.055h19.754c3.599,0,6.492,0.946,8.681,2.838
	c2.189,1.892,3.284,4.415,3.284,7.568c0,1.632-0.371,3.163-1.113,4.591s-1.984,2.569-3.729,3.422
	c2.114,0.891,3.663,2.115,4.646,3.673s1.475,3.599,1.475,6.122c0,3.487-1.316,6.315-3.95,8.486
	C336.758,40.924,333.363,42.01,329.209,42.01z M318.357,24.425V35.11h10.518c1.892,0,3.385-0.501,4.479-1.503
	c1.095-1.001,1.642-2.43,1.642-4.285c0-1.595-0.557-2.81-1.67-3.645c-1.112-0.834-2.615-1.252-4.507-1.252H318.357z"/>
<path d="M374.812,42.01h-7.79V23.646c0-1.892-0.398-3.273-1.196-4.146c-0.798-0.872-2.105-1.308-3.923-1.308
	c-1.967,0-3.469,0.649-4.508,1.948s-1.559,3.098-1.559,5.398V42.01h-7.79V2.055h7.79v14.747c1.039-1.966,2.338-3.32,3.896-4.062
	c1.559-0.742,3.153-1.113,4.786-1.113c3.153,0,5.657,0.891,7.512,2.671c1.855,1.78,2.782,4.192,2.782,7.234V42.01z"/>
<path d="M396.712,38.56c-1.559,1.595-3.107,2.708-4.646,3.339c-1.54,0.63-3.126,0.946-4.758,0.946c-2.894,0-5.138-0.816-6.733-2.448
	c-1.595-1.632-2.393-3.71-2.393-6.233c0-3.19,0.899-5.527,2.698-7.011c1.8-1.483,4.555-2.43,8.264-2.838
	c3.562-0.445,5.676-0.834,6.344-1.168s1.002-0.872,1.002-1.614v-0.445c0-1.15-0.436-1.966-1.308-2.448s-2.013-0.724-3.423-0.724
	c-1.743,0-2.995,0.315-3.756,0.946c-0.761,0.631-1.215,1.67-1.363,3.117h-7.456c0.073-3.302,1.205-5.852,3.394-7.652
	c2.189-1.799,5.473-2.699,9.85-2.699c3.524,0,6.354,0.751,8.486,2.254s3.2,3.57,3.2,6.205v15.971c0,1.373,0.157,2.513,0.473,3.422
	c0.315,0.909,0.751,1.364,1.308,1.364v1.168h-8.403L396.712,38.56z M396.545,31.437v-3.784c-0.297,0.223-0.779,0.464-1.447,0.723
	c-0.667,0.26-1.743,0.52-3.228,0.779c-2.077,0.26-3.579,0.714-4.507,1.363c-0.928,0.649-1.392,1.734-1.392,3.255
	c0,1.039,0.315,1.874,0.946,2.504c0.631,0.631,1.595,0.946,2.894,0.946c1.817,0,3.395-0.566,4.73-1.697
	C395.877,34.395,396.545,33.032,396.545,31.437z"/>
<path d="M416.496,27.542c0,2.856,0.631,5.045,1.892,6.566c1.262,1.521,2.912,2.282,4.953,2.282c2.114,0,3.719-0.854,4.813-2.56
	c1.094-1.707,1.642-4.044,1.642-7.011c0-2.523-0.585-4.563-1.753-6.121c-1.169-1.558-2.718-2.337-4.646-2.337
	c-2.374,0-4.118,0.779-5.231,2.337C417.053,22.255,416.496,24.537,416.496,27.542 M416.83,16.412
	c1.112-1.855,2.438-3.116,3.979-3.784c1.539-0.668,3.182-1.002,4.925-1.002c3.636,0,6.548,1.364,8.736,4.09
	s3.283,6.297,3.283,10.711c0,4.935-1.095,8.895-3.283,11.881s-5.212,4.479-9.07,4.479c-1.743,0-3.311-0.315-4.702-0.946
	c-1.391-0.631-2.736-1.799-4.034-3.506v3.673h-7.624V2.055h7.791V16.412z"/>
<path d="M468.166,42.01h-7.791V23.646c0-1.892-0.398-3.273-1.196-4.146c-0.798-0.872-2.105-1.308-3.923-1.308
	c-1.966,0-3.469,0.649-4.508,1.948c-1.038,1.298-1.558,3.098-1.558,5.398V42.01h-7.791V2.055h7.791v14.747
	c1.038-1.966,2.337-3.32,3.896-4.062c1.558-0.742,3.153-1.113,4.785-1.113c3.153,0,5.657,0.891,7.512,2.671
	c1.855,1.78,2.783,4.192,2.783,7.234V42.01z"/>
<path d="M490.064,38.56c-1.558,1.595-3.107,2.708-4.646,3.339s-3.125,0.946-4.758,0.946c-2.894,0-5.138-0.816-6.733-2.448
	c-1.595-1.632-2.393-3.71-2.393-6.233c0-3.19,0.899-5.527,2.699-7.011c1.799-1.483,4.554-2.43,8.264-2.838
	c3.562-0.445,5.676-0.834,6.343-1.168c0.668-0.334,1.002-0.872,1.002-1.614v-0.445c0-1.15-0.436-1.966-1.308-2.448
	s-2.013-0.724-3.422-0.724c-1.744,0-2.996,0.315-3.757,0.946c-0.76,0.631-1.215,1.67-1.363,3.117h-7.456
	c0.074-3.302,1.205-5.852,3.395-7.652c2.188-1.799,5.472-2.699,9.849-2.699c3.524,0,6.354,0.751,8.486,2.254s3.2,3.57,3.2,6.205
	v15.971c0,1.373,0.157,2.513,0.473,3.422c0.315,0.909,0.751,1.364,1.308,1.364v1.168h-8.402L490.064,38.56z M489.897,31.437v-3.784
	c-0.297,0.223-0.778,0.464-1.446,0.723c-0.668,0.26-1.744,0.52-3.228,0.779c-2.078,0.26-3.58,0.714-4.508,1.363
	c-0.928,0.649-1.392,1.734-1.392,3.255c0,1.039,0.316,1.874,0.946,2.504c0.631,0.631,1.596,0.946,2.894,0.946
	c1.818,0,3.395-0.566,4.73-1.697C489.229,34.395,489.897,33.032,489.897,31.437z"/>
</svg>
