<?xml version="1.0" encoding="UTF-8" standalone="no"?>
<!-- Created with Inkscape (http://www.inkscape.org/) -->
<svg id="svg5783" xmlns:rdf="http://www.w3.org/1999/02/22-rdf-syntax-ns#" xmlns="http://www.w3.org/2000/svg" height="56.398mm" width="84.667mm" version="1.1" xmlns:cc="http://creativecommons.org/ns#" xmlns:dc="http://purl.org/dc/elements/1.1/" viewBox="0 0 299.99999 199.83616">
 <defs id="defs5785">
  <clipPath id="clipPath86" clipPathUnits="userSpaceOnUse">
   <path id="path88" d="m426.36 42.52h68.36v45.536h-68.36v-45.536z"/>
  </clipPath>
 </defs>
 <metadata id="metadata5788">
  <rdf:RDF>
   <cc:Work rdf:about="">
    <dc:format>image/svg+xml</dc:format>
    <dc:type rdf:resource="http://purl.org/dc/dcmitype/StillImage"/>
    <dc:title/>
   </cc:Work>
  </rdf:RDF>
 </metadata>
 <g id="layer1" transform="translate(-151.56 -223.84)">
  <g id="g82" transform="matrix(4.3886 0 0 -4.3886 -1719.6 610.28)">
   <g id="g84" clip-path="url(#clipPath86)">
    <g id="g90" transform="translate(456.19 59.216)">
     <path id="path92" d="m0 0c-0.111-0.136-0.226-0.268-0.344-0.397-0.112-0.123-0.227-0.243-0.344-0.36-0.124-0.123-0.252-0.243-0.381-0.359-0.123-0.111-0.249-0.219-0.378-0.324-0.135-0.111-0.274-0.217-0.416-0.321-0.133-0.098-0.269-0.193-0.408-0.285-0.135-0.09-0.272-0.176-0.412-0.259-0.142-0.085-0.286-0.166-0.433-0.245-0.154-0.082-0.311-0.16-0.47-0.234-0.15-0.07-0.302-0.137-0.455-0.2-0.146-0.06-0.292-0.117-0.441-0.17-0.156-0.055-0.313-0.107-0.472-0.155-0.167-0.051-0.336-0.097-0.506-0.14-0.161-0.039-0.322-0.075-0.486-0.108-0.159-0.031-0.318-0.059-0.48-0.083l0.215-1.435 0.214-1.435c0.207 0.03 0.412 0.066 0.616 0.106 0.209 0.042 0.417 0.088 0.622 0.139 0.219 0.054 0.436 0.114 0.65 0.178 0.204 0.062 0.406 0.129 0.606 0.201 0.191 0.068 0.379 0.141 0.565 0.217 0.198 0.081 0.393 0.167 0.585 0.257 0.204 0.096 0.405 0.196 0.603 0.301 0.188 0.1 0.373 0.205 0.555 0.314 0.18 0.107 0.356 0.218 0.529 0.333 0.178 0.118 0.352 0.24 0.523 0.366l0.86-1.169 0.86-1.168 0.861-1.169 0.859-1.168h0.001c0.261 0.192 0.517 0.39 0.768 0.595 0.238 0.194 0.47 0.393 0.698 0.599 0.24 0.216 0.475 0.437 0.703 0.666 0.217 0.216 0.43 0.438 0.636 0.664 0.218 0.24 0.429 0.485 0.635 0.736l-1.123 0.919-1.123 0.918-1.123 0.919-1.123 0.919-1.123 0.918-1.123 0.919m-18.123-1.84-1.123-0.919-1.123-0.919-1.123-0.919-1.122-0.918c0.194-0.237 0.394-0.469 0.6-0.697 0.217-0.239 0.439-0.473 0.668-0.701 0.217-0.216 0.439-0.428 0.666-0.633 0.241-0.218 0.487-0.428 0.738-0.634l0.919 1.123 0.918 1.123c0.201-0.164 0.406-0.323 0.615-0.478 0.205-0.151 0.413-0.298 0.624-0.439 0.216-0.144 0.435-0.283 0.658-0.417 0.235-0.141 0.474-0.276 0.716-0.405 0.229-0.122 0.461-0.238 0.696-0.349 0.223-0.106 0.448-0.206 0.676-0.301 0.238-0.1 0.48-0.194 0.725-0.282 0.258-0.093 0.519-0.179 0.782-0.259 0.247-0.075 0.497-0.144 0.75-0.208l0.354 1.407 0.001 0.001c-0.23 0.057-0.457 0.12-0.683 0.189-0.239 0.073-0.476 0.15-0.711 0.235l0.494 1.365c-0.201 0.072-0.399 0.149-0.595 0.231-0.187 0.077-0.371 0.16-0.553 0.246-0.193 0.091-0.383 0.186-0.57 0.286-0.199 0.106-0.395 0.216-0.588 0.332-0.182 0.109-0.362 0.223-0.538 0.341-0.174 0.116-0.344 0.236-0.512 0.36-0.171 0.126-0.339 0.257-0.504 0.391-0.174 0.143-0.345 0.289-0.512 0.439-0.157 0.143-0.312 0.289-0.462 0.439-0.159 0.159-0.314 0.321-0.464 0.487-0.143 0.157-0.282 0.319-0.417 0.483" fill="#8dc0c7"/>
    </g>
    <g id="g94" transform="translate(436.91 74.984)">
     <path id="path96" d="m0 0c-0.15-0.183-0.295-0.37-0.436-0.561-0.137-0.187-0.271-0.376-0.4-0.57-0.131-0.196-0.258-0.397-0.38-0.6-0.129-0.214-0.251-0.433-0.369-0.654-0.111-0.209-0.217-0.421-0.318-0.635-0.096-0.203-0.187-0.408-0.274-0.616-0.09-0.219-0.176-0.439-0.256-0.663-0.084-0.235-0.162-0.473-0.235-0.713-0.068-0.226-0.131-0.454-0.188-0.684-0.056-0.225-0.108-0.451-0.153-0.679-0.046-0.231-0.087-0.465-0.121-0.699-0.037-0.247-0.068-0.495-0.092-0.746-0.022-0.234-0.04-0.47-0.052-0.707-0.011-0.237-0.018-0.476-0.018-0.716l0.001-0.032h-1.451-1.451-1.451c0.001-0.308 0.008-0.615 0.023-0.92 0.017-0.325 0.041-0.649 0.073-0.97 0.031-0.307 0.07-0.611 0.115-0.914 0.045-0.298 0.098-0.594 0.156-0.888 0.06-0.302 0.128-0.602 0.202-0.898 0.079-0.316 0.165-0.629 0.26-0.938 0.09-0.294 0.187-0.585 0.291-0.873 0.099-0.275 0.205-0.546 0.315-0.815 0.118-0.284 0.242-0.565 0.373-0.841 0.139-0.294 0.283-0.584 0.437-0.87 0.145-0.27 0.296-0.537 0.454-0.799 0.155-0.258 0.316-0.512 0.483-0.762 0.17-0.255 0.346-0.506 0.528-0.752 0.193-0.261 0.391-0.518 0.597-0.768v-0.001l1.123 0.919 1.123 0.919 1.123 0.919 1.122 0.919h0.001-0.001c-0.142 0.173-0.28 0.351-0.414 0.532-0.126 0.171-0.249 0.345-0.367 0.522-0.116 0.174-0.228 0.35-0.336 0.529-0.109 0.182-0.214 0.367-0.315 0.555-0.107 0.197-0.207 0.399-0.304 0.603-0.09 0.192-0.177 0.386-0.258 0.584-0.078 0.186-0.151 0.374-0.22 0.565-0.072 0.2-0.14 0.402-0.202 0.606-0.066 0.214-0.126 0.431-0.181 0.65-0.052 0.206-0.099 0.414-0.141 0.624-0.041 0.204-0.077 0.409-0.109 0.617-0.031 0.21-0.058 0.42-0.08 0.634-0.023 0.223-0.04 0.447-0.051 0.673-0.011 0.212-0.016 0.425-0.016 0.639l-0.001 0.032c0 0.215 0.006 0.429 0.016 0.641 0.011 0.214 0.027 0.427 0.047 0.638 0.022 0.226 0.049 0.45 0.082 0.671 0.031 0.212 0.068 0.422 0.11 0.63 0.04 0.206 0.086 0.41 0.137 0.612 0.051 0.208 0.108 0.413 0.17 0.617 0.065 0.216 0.135 0.43 0.211 0.642 0.072 0.201 0.149 0.4 0.231 0.597 0.078 0.187 0.16 0.372 0.246 0.555 0.091 0.194 0.187 0.384 0.287 0.572 0.106 0.2 0.216 0.397 0.332 0.59 0.11 0.183 0.224 0.363 0.342 0.541 0.116 0.174 0.237 0.345 0.361 0.513 0.127 0.172 0.257 0.34 0.392 0.505l-1.123 0.919" fill="#80aaa4"/>
    </g>
    <g id="g98" transform="translate(456.05 55.118)">
     <path id="path100" d="m0 0c-0.171-0.126-0.346-0.248-0.523-0.366-0.173-0.115-0.35-0.226-0.529-0.333-0.182-0.109-0.367-0.213-0.555-0.313-0.198-0.106-0.4-0.206-0.603-0.301-0.193-0.091-0.387-0.176-0.585-0.257-0.186-0.077-0.374-0.15-0.565-0.218-0.2-0.071-0.402-0.138-0.606-0.2-0.214-0.065-0.431-0.124-0.65-0.179-0.206-0.051-0.413-0.097-0.622-0.138-0.204-0.04-0.409-0.076-0.616-0.107l0.214-1.435c-0.232-0.034-0.467-0.064-0.702-0.087-0.247-0.024-0.496-0.043-0.747-0.054-0.234-0.011-0.47-0.018-0.708-0.018-0.25 0-0.498 0.006-0.745 0.018-0.237 0.012-0.472 0.031-0.706 0.054-0.25 0.024-0.497 0.055-0.743 0.092-0.234 0.035-0.467 0.077-0.697 0.123-0.228 0.045-0.454 0.097-0.678 0.153l-0.354-1.407c0.246-0.062 0.494-0.118 0.744-0.169 0.254-0.05 0.509-0.096 0.767-0.135 0.27-0.041 0.542-0.074 0.816-0.101l-0.144-1.444-0.144-1.443c0.303-0.03 0.609-0.054 0.916-0.07 0.321-0.016 0.644-0.024 0.968-0.024 0.309 0 0.615 0.009 0.919 0.023 0.326 0.016 0.649 0.039 0.969 0.071 0.307 0.03 0.611 0.069 0.913 0.113 0.298 0.044 0.594 0.096 0.888 0.154 0.301 0.059 0.6 0.127 0.897 0.2 0.315 0.078 0.628 0.164 0.937 0.258 0.294 0.089 0.585 0.185 0.872 0.288 0.275 0.099 0.547 0.204 0.815 0.314 0.284 0.117 0.565 0.24 0.842 0.37 0.294 0.138 0.584 0.283 0.869 0.435 0.271 0.144 0.538 0.295 0.801 0.452 0.258 0.154 0.512 0.315 0.762 0.481 0.256 0.17 0.506 0.345 0.753 0.526l-0.86 1.168-0.86 1.169-0.86 1.168-0.86 1.169" fill="#80aaa4"/>
    </g>
    <g id="g102" transform="translate(449.76 55.576)">
     <path id="path104" d="m0 0c-0.163-0.024-0.327-0.045-0.493-0.061-0.173-0.017-0.348-0.03-0.524-0.038-0.165-0.008-0.33-0.013-0.497-0.013v-1.451-1.451c0.214 0 0.426 0.006 0.638 0.016 0.225 0.011 0.449 0.027 0.672 0.049 0.213 0.021 0.423 0.047 0.633 0.079l-0.215 1.435-0.214 1.435m-5.983-2.236-0.493-1.364c0.234-0.085 0.471-0.163 0.711-0.236 0.226-0.068 0.453-0.131 0.682-0.189l0.355 1.407c0.201-0.05 0.405-0.097 0.61-0.138 0.208-0.041 0.417-0.079 0.628-0.11 0.221-0.034 0.444-0.062 0.669-0.083 0.21-0.021 0.422-0.037 0.636-0.048 0.222-0.011 0.446-0.017 0.671-0.017-0.225 0-0.449 0.006-0.671 0.017-0.214 0.011-0.425 0.027-0.636 0.048-0.225 0.022-0.448 0.049-0.669 0.083-0.211 0.032-0.42 0.069-0.628 0.11-0.205 0.041-0.408 0.088-0.61 0.138-0.207 0.052-0.412 0.109-0.614 0.17-0.216 0.066-0.43 0.136-0.641 0.212" fill="#80aaa4"/>
    </g>
    <g id="g106" transform="translate(445.03 52.959)">
     <path id="path108" d="m0 0-0.355-1.407c0.224-0.056 0.45-0.107 0.677-0.153 0.231-0.046 0.463-0.088 0.698-0.123 0.245-0.037 0.493-0.067 0.742-0.092 0.235-0.023 0.47-0.041 0.707-0.053 0.246-0.013 0.495-0.019 0.745-0.019 0.238 0 0.474 0.007 0.708 0.018 0.251 0.012 0.499 0.03 0.747 0.054 0.235 0.024 0.47 0.053 0.702 0.087l-0.214 1.435c-0.21-0.031-0.42-0.057-0.633-0.078-0.223-0.022-0.447-0.038-0.672-0.049-0.212-0.01-0.424-0.016-0.638-0.016-0.225 0-0.449 0.006-0.671 0.017-0.214 0.01-0.426 0.027-0.636 0.048-0.225 0.021-0.448 0.049-0.669 0.082-0.211 0.032-0.421 0.07-0.628 0.111-0.205 0.041-0.409 0.088-0.61 0.138" fill="#759889"/>
    </g>
    <g id="g110" transform="translate(438.08 53.282)">
     <path id="path112" d="m0 0-0.919-1.123-0.918-1.123c0.237-0.194 0.479-0.382 0.726-0.564 0.241-0.179 0.487-0.352 0.737-0.519 0.254-0.17 0.513-0.334 0.776-0.492 0.277-0.167 0.56-0.326 0.846-0.479 0.27-0.144 0.544-0.281 0.822-0.412 0.262-0.124 0.528-0.243 0.797-0.356 0.282-0.117 0.568-0.228 0.857-0.333 0.304-0.109 0.612-0.211 0.923-0.305 0.292-0.089 0.587-0.171 0.885-0.246l0.355 1.407 0.355 1.408c-0.253 0.063-0.503 0.132-0.75 0.207-0.264 0.08-0.524 0.166-0.782 0.259-0.245 0.088-0.487 0.182-0.726 0.282-0.227 0.095-0.452 0.196-0.675 0.301-0.235 0.11-0.467 0.227-0.696 0.349-0.242 0.129-0.481 0.264-0.716 0.405-0.223 0.134-0.442 0.273-0.658 0.417-0.212 0.141-0.42 0.288-0.624 0.439-0.209 0.155-0.414 0.314-0.615 0.478" fill="#92b73c"/>
    </g>
    <g id="g114" transform="translate(444.33 50.145)">
     <path id="path116" d="m0 0-0.355-1.408-0.355-1.406h0.001c0.29-0.073 0.583-0.14 0.878-0.199 0.3-0.06 0.602-0.114 0.906-0.16 0.319-0.048 0.64-0.088 0.964-0.119l0.144 1.443 0.145 1.444c-0.275 0.027-0.547 0.061-0.817 0.101-0.258 0.039-0.513 0.085-0.767 0.135-0.25 0.05-0.498 0.107-0.744 0.169" fill="#83a337"/>
    </g>
    <g id="g118" transform="translate(437.97 65.741)">
     <path id="path120" d="m0 0v-0.001-0.031c0.001-0.167 0.005-0.333 0.013-0.498 0.009-0.176 0.023-0.351 0.041-0.525 0.016-0.166 0.038-0.331 0.062-0.495 0.025-0.161 0.053-0.322 0.085-0.481 0.033-0.163 0.07-0.325 0.11-0.485 0.043-0.171 0.09-0.34 0.142-0.507 0.049-0.16 0.101-0.317 0.158-0.473 0.053-0.149 0.111-0.295 0.172-0.44 0.063-0.154 0.131-0.306 0.201-0.456 0.075-0.158 0.154-0.315 0.237-0.47 0.079-0.146 0.161-0.29 0.246-0.432 0.085-0.14 0.172-0.277 0.262-0.412 0.092-0.138 0.188-0.273 0.287-0.406 0.104-0.142 0.211-0.28 0.323-0.415l-1.123-0.919-1.123-0.919c0.135-0.164 0.274-0.325 0.417-0.483 0.15-0.166 0.305-0.328 0.464-0.486 0.151-0.151 0.305-0.297 0.463-0.44 0.166-0.15 0.337-0.296 0.512-0.439 0.164-0.134 0.333-0.265 0.504-0.391 0.167-0.124 0.338-0.244 0.511-0.36 0.177-0.118 0.356-0.232 0.539-0.341 0.192-0.116 0.388-0.226 0.587-0.332 0.188-0.1 0.378-0.195 0.57-0.286 0.182-0.086 0.367-0.168 0.553-0.246 0.196-0.082 0.394-0.159 0.595-0.231l0.493 1.365 0.493 1.365c-0.156 0.056-0.31 0.116-0.463 0.18-0.146 0.06-0.289 0.124-0.431 0.191-0.15 0.071-0.298 0.145-0.444 0.223-0.155 0.083-0.308 0.168-0.458 0.259-0.143 0.085-0.282 0.174-0.42 0.265-0.135 0.091-0.268 0.184-0.399 0.281-0.133 0.098-0.264 0.2-0.393 0.305-0.136 0.11-0.269 0.224-0.399 0.342-0.123 0.111-0.243 0.225-0.361 0.342-0.123 0.123-0.244 0.249-0.362 0.379-0.111 0.122-0.22 0.248-0.325 0.376-0.112 0.135-0.219 0.274-0.323 0.415-0.099 0.133-0.195 0.269-0.287 0.407-0.09 0.135-0.177 0.272-0.262 0.411-0.085 0.142-0.167 0.286-0.246 0.433-0.083 0.154-0.162 0.311-0.237 0.47-0.07 0.15-0.138 0.301-0.201 0.455-0.061 0.145-0.119 0.292-0.172 0.441-0.057 0.155-0.109 0.313-0.158 0.472-0.052 0.167-0.099 0.336-0.142 0.507-0.04 0.161-0.077 0.323-0.11 0.486-0.032 0.159-0.06 0.319-0.085 0.481-0.024 0.163-0.046 0.328-0.062 0.494-0.018 0.174-0.032 0.349-0.041 0.526-0.008 0.165-0.012 0.331-0.013 0.498v0.031" fill="#175566"/>
    </g>
    <g id="g122" transform="translate(438.03 74.066)">
     <path id="path124" d="m0 0c-0.135-0.165-0.266-0.334-0.393-0.506-0.124-0.168-0.244-0.339-0.36-0.513-0.119-0.177-0.232-0.358-0.342-0.541-0.116-0.193-0.226-0.39-0.332-0.589-0.101-0.188-0.196-0.379-0.287-0.572-0.086-0.183-0.168-0.368-0.246-0.556-0.082-0.196-0.159-0.395-0.231-0.596-0.076-0.212-0.146-0.426-0.212-0.643-0.061-0.203-0.118-0.409-0.169-0.616-0.051-0.203-0.097-0.406-0.138-0.612-0.041-0.208-0.078-0.418-0.109-0.63-0.033-0.222-0.06-0.446-0.082-0.671-0.021-0.211-0.037-0.424-0.047-0.638-0.01-0.213-0.016-0.427-0.016-0.642l0.001-0.031c0-0.214 0.005-0.427 0.016-0.639 0.011-0.226 0.028-0.451 0.051-0.674 0.021-0.213 0.049-0.424 0.08-0.634 0.031-0.207 0.068-0.413 0.109-0.617 0.042-0.209 0.089-0.417 0.14-0.623 0.056-0.219 0.115-0.436 0.181-0.651 0.063-0.204 0.13-0.406 0.202-0.606 0.069-0.19 0.143-0.378 0.22-0.565 0.082-0.197 0.168-0.392 0.259-0.584 0.097-0.204 0.197-0.405 0.304-0.603 0.101-0.187 0.206-0.372 0.315-0.555 0.108-0.179 0.22-0.355 0.336-0.528 0.118-0.177 0.24-0.351 0.367-0.522 0.134-0.181 0.271-0.359 0.414-0.533l1.123 0.919 1.123 0.919c-0.111 0.135-0.219 0.274-0.323 0.415-0.099 0.133-0.195 0.269-0.287 0.407-0.09 0.135-0.177 0.272-0.261 0.411-0.086 0.142-0.168 0.286-0.247 0.433-0.082 0.154-0.161 0.311-0.236 0.47-0.071 0.149-0.139 0.301-0.202 0.455-0.061 0.145-0.118 0.292-0.172 0.44-0.057 0.156-0.109 0.314-0.158 0.473-0.052 0.167-0.098 0.336-0.141 0.507-0.041 0.16-0.078 0.322-0.11 0.486-0.032 0.159-0.061 0.319-0.086 0.481-0.024 0.163-0.046 0.328-0.062 0.494-0.018 0.174-0.031 0.349-0.041 0.525-0.008 0.165-0.012 0.332-0.012 0.499l-0.001 0.031c0 0.166 0.005 0.331 0.012 0.494 0.008 0.167 0.021 0.332 0.037 0.497 0.017 0.176 0.037 0.351 0.063 0.524 0.024 0.165 0.053 0.329 0.085 0.491 0.032 0.161 0.068 0.32 0.107 0.477 0.04 0.162 0.084 0.322 0.132 0.481 0.051 0.169 0.105 0.337 0.165 0.501 0.056 0.157 0.116 0.313 0.179 0.466 0.061 0.146 0.125 0.291 0.192 0.433 0.071 0.151 0.146 0.3 0.224 0.447 0.082 0.155 0.168 0.309 0.259 0.46 0.085 0.142 0.174 0.283 0.266 0.422 0.091 0.135 0.184 0.269 0.281 0.4 0.099 0.134 0.201 0.266 0.306 0.395l-1.123 0.918-1.123 0.919" fill="#174c56"/>
    </g>
    <g id="g126" transform="translate(444.77 56.071)">
     <path id="path128" d="m0 0-0.493-1.365-0.493-1.365c0.21-0.076 0.424-0.146 0.64-0.212 0.203-0.061 0.408-0.118 0.614-0.17 0.202-0.051 0.405-0.097 0.61-0.138 0.208-0.042 0.417-0.079 0.628-0.111 0.221-0.033 0.444-0.061 0.669-0.083 0.211-0.021 0.423-0.037 0.636-0.048 0.222-0.011 0.446-0.017 0.671-0.017h0.001v1.451 1.451c-0.176 0-0.35 0.005-0.523 0.014-0.167 0.008-0.332 0.021-0.496 0.037-0.175 0.017-0.349 0.039-0.521 0.065-0.165 0.024-0.328 0.053-0.49 0.086-0.16 0.032-0.318 0.068-0.475 0.107-0.161 0.041-0.321 0.085-0.479 0.133-0.168 0.051-0.335 0.106-0.499 0.165" fill="#174c56"/>
    </g>
    <g id="g130" transform="translate(433.54 77.74)">
     <path id="path132" d="m0 0c-0.194-0.238-0.383-0.48-0.566-0.728-0.178-0.242-0.352-0.488-0.519-0.738-0.171-0.256-0.335-0.515-0.493-0.779-0.167-0.278-0.326-0.561-0.479-0.848-0.144-0.271-0.282-0.545-0.413-0.824-0.124-0.263-0.243-0.529-0.356-0.799-0.117-0.283-0.228-0.57-0.333-0.859-0.109-0.305-0.21-0.613-0.304-0.925-0.089-0.293-0.171-0.589-0.246-0.888-0.072-0.291-0.139-0.585-0.198-0.881-0.06-0.3-0.113-0.602-0.158-0.907-0.048-0.32-0.088-0.642-0.119-0.967-0.03-0.304-0.053-0.61-0.068-0.918-0.015-0.311-0.023-0.623-0.023-0.938v-0.031-0.001h1.451 1.451 1.451l-0.001 0.032c0 0.24 0.007 0.479 0.018 0.716 0.012 0.238 0.03 0.473 0.052 0.708 0.024 0.25 0.055 0.498 0.091 0.745 0.035 0.235 0.076 0.468 0.122 0.699 0.046 0.228 0.097 0.455 0.153 0.679 0.057 0.23 0.12 0.459 0.188 0.684 0.073 0.241 0.151 0.479 0.235 0.714 0.08 0.223 0.166 0.444 0.256 0.662 0.087 0.208 0.178 0.413 0.274 0.616 0.101 0.215 0.207 0.426 0.318 0.635 0.118 0.222 0.24 0.44 0.369 0.654 0.122 0.204 0.249 0.404 0.38 0.6 0.129 0.194 0.263 0.384 0.4 0.57 0.141 0.191 0.286 0.378 0.436 0.561l-1.123 0.919-1.123 0.918-1.123 0.919" fill="#749787"/>
    </g>
    <g id="g134" transform="translate(443.4 74.802)">
     <path id="path136" d="m0 0c-0.147-0.079-0.292-0.161-0.435-0.247-0.14-0.084-0.278-0.171-0.413-0.262-0.139-0.093-0.275-0.188-0.409-0.287-0.142-0.105-0.281-0.213-0.417-0.324-0.129-0.107-0.255-0.215-0.378-0.327-0.13-0.118-0.257-0.239-0.381-0.363-0.117-0.118-0.232-0.239-0.343-0.363-0.118-0.13-0.232-0.264-0.344-0.401-0.105-0.129-0.207-0.26-0.306-0.395-0.097-0.131-0.19-0.264-0.281-0.4-0.092-0.138-0.181-0.279-0.267-0.422-0.09-0.151-0.176-0.304-0.258-0.46-0.079-0.147-0.153-0.295-0.224-0.446-0.067-0.143-0.131-0.288-0.192-0.434-0.063-0.153-0.123-0.308-0.179-0.465-0.06-0.165-0.114-0.332-0.165-0.502-0.048-0.158-0.092-0.319-0.132-0.48-0.039-0.158-0.075-0.317-0.107-0.478-0.032-0.162-0.06-0.326-0.085-0.491-0.025-0.173-0.046-0.348-0.064-0.523-0.015-0.165-0.027-0.331-0.036-0.498-0.007-0.163-0.012-0.328-0.012-0.493l0.001-0.031c0.001-0.167 0.004-0.333 0.012-0.498 0.01-0.177 0.023-0.352 0.041-0.526 0.016-0.166 0.038-0.331 0.063-0.494 0.024-0.162 0.053-0.322 0.085-0.481 0.032-0.164 0.069-0.326 0.11-0.486 0.043-0.171 0.089-0.34 0.141-0.507 0.049-0.159 0.102-0.317 0.158-0.472 0.054-0.149 0.111-0.296 0.172-0.441 0.064-0.154 0.131-0.306 0.201-0.455 0.075-0.159 0.154-0.316 0.237-0.47 0.079-0.147 0.161-0.291 0.247-0.433 0.084-0.139 0.171-0.276 0.261-0.411 0.093-0.138 0.188-0.274 0.287-0.407 0.104-0.141 0.212-0.28 0.323-0.415 0.106-0.128 0.214-0.254 0.325-0.376 0.118-0.13 0.239-0.256 0.363-0.379 0.117-0.117 0.237-0.231 0.36-0.342 0.13-0.118 0.264-0.232 0.4-0.342 0.128-0.105 0.259-0.207 0.392-0.305 0.131-0.097 0.264-0.19 0.399-0.281 0.138-0.091 0.278-0.18 0.42-0.265 0.15-0.091 0.303-0.176 0.458-0.259 0.146-0.078 0.294-0.152 0.444-0.223 0.142-0.067 0.286-0.131 0.431-0.192 0.153-0.063 0.307-0.123 0.464-0.179l0.493 1.364c0.141-0.05 0.284-0.097 0.428-0.141 0.136-0.041 0.273-0.079 0.411-0.114 0.135-0.034 0.271-0.065 0.408-0.092 0.139-0.028 0.279-0.053 0.42-0.074 0.148-0.022 0.297-0.041 0.448-0.056 0.14-0.013 0.282-0.024 0.425-0.031 0.149-0.008 0.299-0.012 0.449-0.012v1.451 1.451c-0.101 0-0.201 0.003-0.301 0.008-0.095 0.004-0.19 0.012-0.285 0.021-0.1 0.01-0.2 0.022-0.299 0.037-0.095 0.014-0.189 0.031-0.282 0.049-0.092 0.019-0.183 0.039-0.273 0.062-0.093 0.023-0.185 0.049-0.276 0.076-0.097 0.029-0.192 0.061-0.287 0.095-0.09 0.032-0.179 0.067-0.267 0.103-0.083 0.035-0.166 0.072-0.248 0.11-0.086 0.041-0.171 0.083-0.256 0.128-0.089 0.048-0.177 0.097-0.263 0.149-0.082 0.049-0.163 0.099-0.242 0.152-0.078 0.052-0.154 0.106-0.229 0.161-0.078 0.057-0.153 0.115-0.227 0.175-0.078 0.064-0.155 0.129-0.23 0.197-0.071 0.064-0.14 0.129-0.208 0.196-0.071 0.071-0.141 0.144-0.209 0.218-0.064 0.07-0.126 0.143-0.187 0.216-0.065 0.078-0.126 0.157-0.187 0.239-0.057 0.076-0.112 0.154-0.165 0.233-0.052 0.078-0.103 0.157-0.151 0.237-0.05 0.082-0.097 0.165-0.143 0.249-0.047 0.089-0.093 0.179-0.137 0.271-0.041 0.086-0.08 0.173-0.117 0.261-0.034 0.084-0.068 0.168-0.099 0.254-0.033 0.09-0.063 0.18-0.091 0.272-0.03 0.096-0.058 0.194-0.083 0.292-0.023 0.092-0.044 0.186-0.063 0.28-0.019 0.091-0.036 0.184-0.05 0.277-0.014 0.094-0.027 0.189-0.036 0.284-0.011 0.101-0.019 0.202-0.024 0.303-0.005 0.095-0.008 0.191-0.008 0.288l-0.001 0.031c0 0.091 0.003 0.181 0.007 0.271 0.004 0.096 0.011 0.192 0.02 0.287 0.01 0.101 0.021 0.202 0.036 0.302 0.014 0.095 0.03 0.19 0.049 0.283 0.018 0.093 0.038 0.184 0.06 0.275 0.023 0.094 0.048 0.186 0.076 0.278 0.029 0.098 0.06 0.194 0.094 0.29 0.032 0.09 0.067 0.18 0.104 0.268 0.034 0.085 0.071 0.168 0.11 0.25 0.04 0.088 0.083 0.174 0.128 0.258 0.047 0.09 0.097 0.179 0.149 0.266 0.049 0.082 0.1 0.164 0.153 0.244 0.053 0.078 0.106 0.156 0.162 0.231 0.057 0.078 0.116 0.154 0.176 0.229 0.065 0.078 0.13 0.156 0.198 0.231 0.064 0.072 0.13 0.142 0.198 0.21l-1.026 1.026c0.089 0.089 0.18 0.177 0.273 0.261 0.089 0.081 0.179 0.159 0.272 0.235 0.097 0.08 0.197 0.158 0.299 0.233 0.096 0.071 0.194 0.14 0.294 0.207 0.097 0.065 0.196 0.128 0.297 0.188 0.102 0.062 0.206 0.121 0.312 0.178m-0.001 0l-0.683 1.28-0.682 1.28m4.849-1.686c-0.121 0-0.24-0.004-0.359-0.01l0.07-1.449c0.096 0.005 0.192 0.008 0.289 0.008v1.45 0.001" fill="#39607a"/>
    </g>
    <g id="g138" transform="translate(448.25 76.018)">
     <path id="path140" d="m0 0v-1.451-1.451c0.127 0 0.253-0.003 0.378-0.009 0.12-0.006 0.24-0.016 0.358-0.028 0.127-0.012 0.253-0.028 0.377-0.046 0.119-0.018 0.237-0.039 0.353-0.063l0.288 1.422c-0.139 0.029-0.28 0.054-0.422 0.075-0.149 0.023-0.3 0.041-0.451 0.056l0.144 1.444c-0.165 0.016-0.331 0.029-0.498 0.038-0.175 0.008-0.35 0.013-0.527 0.013" fill="#f9ed20"/>
    </g>
    <g id="g142" transform="translate(448.25 84.724)">
     <path id="path144" d="m0 0v-1.451-1.451-1.451c0.251 0 0.501-0.006 0.749-0.019 0.238-0.012 0.474-0.03 0.709-0.053l0.144 1.443c0.276-0.027 0.549-0.061 0.82-0.102l0.219 1.435 0.218 1.434c-0.32 0.049-0.643 0.088-0.968 0.121-0.305 0.03-0.611 0.054-0.919 0.069-0.322 0.017-0.646 0.025-0.972 0.025m-6.898-6.08c-0.209-0.112-0.416-0.229-0.618-0.35-0.2-0.12-0.396-0.245-0.589-0.373-0.197-0.132-0.391-0.268-0.581-0.409-0.202-0.149-0.4-0.302-0.594-0.461-0.183-0.15-0.362-0.305-0.538-0.464-0.185-0.167-0.366-0.34-0.542-0.516-0.167-0.168-0.33-0.34-0.489-0.516-0.168-0.185-0.331-0.376-0.489-0.57l1.123-0.919c0.143 0.175 0.289 0.347 0.44 0.514 0.143 0.158 0.29 0.313 0.441 0.464 0.159 0.16 0.322 0.315 0.488 0.466 0.158 0.143 0.32 0.283 0.485 0.418 0.174 0.143 0.353 0.282 0.535 0.416 0.171 0.127 0.346 0.249 0.524 0.368 0.174 0.116 0.35 0.228 0.53 0.336 0.183 0.11 0.368 0.215 0.557 0.316l-0.683 1.28" fill="#ded9c9"/>
    </g>
    <g id="g146" transform="translate(448.25 80.371)">
     <path id="path148" d="m0 0c-0.238 0-0.475-0.007-0.711-0.018-0.196-0.009-0.391-0.023-0.585-0.04-0.055-0.004-0.11-0.01-0.165-0.015-0.237-0.024-0.472-0.053-0.706-0.088-0.23-0.034-0.459-0.074-0.686-0.119-0.057-0.012-0.113-0.023-0.17-0.035-0.176-0.037-0.35-0.077-0.524-0.12-0.093-0.024-0.186-0.048-0.279-0.073-0.005-0.001-0.011-0.002-0.016-0.004-0.001 0-0.001 0-0.002-0.001-0.022-0.006-0.044-0.012-0.066-0.018h-0.003c-0.004-0.002-0.01-0.003-0.015-0.005-0.115-0.031-0.229-0.065-0.343-0.099-0.228-0.07-0.452-0.145-0.675-0.224-0.212-0.077-0.422-0.158-0.63-0.244-0.219-0.091-0.436-0.186-0.65-0.287-0.227-0.107-0.451-0.219-0.672-0.337l0.683-1.28v-0.001 0.001c0.199 0.106 0.401 0.207 0.605 0.303 0.193 0.091 0.388 0.177 0.586 0.259 0.187 0.077 0.376 0.151 0.568 0.219 0.2 0.073 0.403 0.14 0.608 0.202 0.215 0.066 0.432 0.126 0.652 0.181 0.207 0.051 0.415 0.098 0.626 0.139 0.204 0.041 0.41 0.077 0.619 0.108 0.21 0.031 0.422 0.058 0.635 0.079 0.224 0.022 0.449 0.039 0.676 0.05 0.212 0.01 0.425 0.016 0.64 0.016v-1.451-1.451c0.177 0 0.352-0.005 0.527-0.014 0.167-0.008 0.333-0.021 0.498-0.037l0.145 1.443 0.144 1.444 0.144 1.444c-0.235 0.023-0.471 0.042-0.709 0.054-0.248 0.013-0.498 0.019-0.749 0.019" fill="#dacd25"/>
    </g>
    <g id="g150" transform="translate(459.49 50.444)">
     <path id="path152" d="m0 0c-0.247-0.182-0.498-0.357-0.753-0.527-0.25-0.166-0.504-0.326-0.763-0.48-0.262-0.157-0.529-0.308-0.8-0.452-0.285-0.153-0.575-0.297-0.869-0.435-0.277-0.13-0.558-0.254-0.842-0.37-0.268-0.111-0.54-0.216-0.815-0.314-0.288-0.103-0.579-0.199-0.873-0.289-0.309-0.094-0.621-0.179-0.936-0.257-0.297-0.074-0.596-0.141-0.898-0.2-0.293-0.058-0.589-0.11-0.888-0.154-0.301-0.045-0.606-0.083-0.912-0.113-0.321-0.032-0.644-0.055-0.969-0.071-0.305-0.014-0.611-0.023-0.919-0.023-0.325 0-0.647 0.008-0.968 0.024-0.308 0.016-0.613 0.04-0.917 0.069l-0.144-1.444c0.327-0.032 0.656-0.058 0.987-0.075 0.345-0.017 0.693-0.026 1.042-0.026 0.332 0 0.662 0.009 0.989 0.025 0.35 0.017 0.699 0.042 1.044 0.076 0.33 0.033 0.657 0.074 0.982 0.122 0.321 0.048 0.64 0.104 0.955 0.166 0.325 0.064 0.647 0.136 0.967 0.215 0.339 0.085 0.676 0.177 1.008 0.278 0.316 0.096 0.63 0.199 0.94 0.31 0.295 0.106 0.588 0.219 0.877 0.339 0.306 0.125 0.608 0.258 0.906 0.398 0.316 0.148 0.629 0.304 0.936 0.468 0.291 0.155 0.578 0.318 0.861 0.486 0.278 0.167 0.552 0.339 0.821 0.518 0.275 0.183 0.546 0.371 0.811 0.567l-0.86 1.169" fill="#ded9c9"/>
    </g>
    <g id="g154" transform="translate(449.55 57.012)">
     <path id="path156" d="m0 0c-0.14-0.021-0.281-0.038-0.423-0.052-0.149-0.015-0.299-0.026-0.45-0.033-0.141-0.007-0.283-0.011-0.426-0.011v-1.451c0.166 0 0.332 0.005 0.496 0.013 0.176 0.008 0.351 0.021 0.524 0.038 0.166 0.016 0.33 0.037 0.493 0.061l-0.214 1.435" fill="#ded9c9"/>
    </g>
    <g id="g158" transform="translate(450.38 67.824)">
     <path id="path160" d="m0 0c0.287 0 0.503 0.071 0.647 0.212 0.143 0.142 0.215 0.331 0.215 0.568 0 0.251-0.077 0.447-0.232 0.586-0.156 0.139-0.37 0.208-0.644 0.208h-0.862v-1.574h0.876zm-1.513 2.143h1.458c0.292 0 0.538-0.041 0.739-0.12 0.201-0.08 0.364-0.183 0.49-0.308 0.125-0.126 0.216-0.269 0.274-0.428 0.056-0.16 0.085-0.322 0.085-0.486 0-0.292-0.068-0.55-0.205-0.774-0.137-0.223-0.349-0.39-0.637-0.5l1.068-1.95h-0.739l-0.979 1.868h-0.917v-1.868h-0.637v4.566z" fill="#848d8c"/>
    </g>
    <g id="g162" transform="translate(454.71 65.901)">
     <path id="path164" d="m0 0c0.251 0 0.478 0.048 0.681 0.144s0.376 0.225 0.52 0.39c0.144 0.164 0.255 0.355 0.332 0.571 0.078 0.217 0.117 0.447 0.117 0.689 0 0.246-0.039 0.477-0.117 0.694-0.077 0.217-0.188 0.408-0.332 0.572s-0.317 0.293-0.52 0.387c-0.203 0.093-0.43 0.14-0.681 0.14s-0.477-0.047-0.678-0.14c-0.201-0.094-0.373-0.223-0.516-0.387-0.144-0.164-0.255-0.355-0.332-0.572-0.078-0.217-0.117-0.448-0.117-0.694 0-0.242 0.039-0.472 0.117-0.689 0.077-0.216 0.188-0.407 0.332-0.571 0.143-0.165 0.315-0.294 0.516-0.39s0.427-0.144 0.678-0.144m0-0.616c-0.328 0-0.634 0.063-0.917 0.188-0.283 0.126-0.529 0.297-0.74 0.514-0.209 0.216-0.373 0.471-0.492 0.763s-0.178 0.604-0.178 0.937c0 0.334 0.059 0.645 0.178 0.935s0.282 0.543 0.489 0.76c0.208 0.216 0.454 0.388 0.739 0.513s0.593 0.188 0.921 0.188 0.635-0.063 0.921-0.188c0.285-0.125 0.532-0.297 0.742-0.513 0.21-0.217 0.374-0.47 0.493-0.76s0.178-0.601 0.178-0.935c0-0.333-0.059-0.645-0.178-0.937s-0.283-0.547-0.493-0.763c-0.21-0.217-0.457-0.388-0.742-0.514-0.286-0.125-0.593-0.188-0.921-0.188" fill="#848d8c"/>
    </g>
    <g id="g166" transform="translate(458.5 67.441)">
     <path id="path168" d="m0 0-1.574 2.526h0.732l1.191-1.951 1.192 1.951h0.704l-1.581-2.526v-2.04h-0.664v2.04z" fill="#848d8c"/>
    </g>
    <g id="g170" transform="translate(462.61 67.229)">
     <path id="path172" d="m0 0-0.739 2.006-0.746-2.006h1.485zm-1.054 2.738h0.671l1.787-4.566h-0.733l-0.472 1.273h-1.876l-0.472-1.273h-0.691l1.786 4.566z" fill="#848d8c"/>
    </g>
    <g id="g174" transform="translate(464.4 69.967)">
     <path id="path176" d="m0 0h0.657v-3.984h2.375v-0.582h-3.032v4.566z" fill="#848d8c"/>
    </g>
    <g id="g178" transform="translate(469.51 66.51)">
     <path id="path180" d="m0 0c0.063-0.073 0.136-0.147 0.215-0.222 0.08-0.076 0.17-0.143 0.27-0.202 0.101-0.059 0.213-0.108 0.336-0.144 0.123-0.037 0.258-0.055 0.404-0.055 0.301 0 0.536 0.069 0.705 0.205 0.169 0.137 0.253 0.322 0.253 0.555 0 0.251-0.096 0.439-0.287 0.565-0.192 0.125-0.468 0.227-0.828 0.304-0.197 0.041-0.375 0.098-0.534 0.171-0.16 0.074-0.298 0.165-0.414 0.274-0.117 0.11-0.207 0.237-0.271 0.38-0.064 0.144-0.096 0.307-0.096 0.49 0 0.168 0.032 0.328 0.096 0.479 0.064 0.15 0.16 0.283 0.288 0.397 0.127 0.114 0.287 0.205 0.479 0.273 0.191 0.069 0.413 0.103 0.664 0.103 0.223 0 0.416-0.024 0.578-0.072s0.3-0.106 0.414-0.174c0.114-0.069 0.206-0.139 0.274-0.212 0.069-0.073 0.121-0.133 0.158-0.178l-0.439-0.404c-0.027 0.032-0.068 0.074-0.123 0.127-0.055 0.052-0.124 0.103-0.209 0.153-0.084 0.051-0.182 0.093-0.294 0.127s-0.241 0.051-0.386 0.051c-0.147 0-0.272-0.019-0.377-0.058s-0.192-0.089-0.26-0.15c-0.069-0.062-0.119-0.131-0.151-0.209s-0.048-0.155-0.048-0.233c0-0.114 0.024-0.211 0.072-0.291s0.118-0.15 0.209-0.212 0.204-0.114 0.339-0.157c0.134-0.044 0.289-0.086 0.462-0.127 0.169-0.041 0.334-0.095 0.496-0.161s0.307-0.155 0.435-0.267c0.127-0.112 0.229-0.249 0.304-0.411 0.076-0.162 0.113-0.359 0.113-0.592 0-0.196-0.041-0.376-0.123-0.541-0.082-0.164-0.195-0.306-0.339-0.427s-0.314-0.215-0.51-0.281-0.408-0.099-0.636-0.099c-0.215 0-0.41 0.025-0.586 0.075-0.175 0.05-0.335 0.114-0.479 0.192-0.143 0.077-0.269 0.163-0.376 0.256-0.108 0.094-0.195 0.186-0.264 0.278l0.466 0.424z" fill="#848d8c"/>
    </g>
    <g id="g182" transform="translate(475.1 65.901)">
     <path id="path184" d="m0 0c0.251 0 0.478 0.048 0.681 0.144s0.376 0.225 0.52 0.39c0.144 0.164 0.254 0.355 0.332 0.571 0.078 0.217 0.116 0.447 0.116 0.689 0 0.246-0.038 0.477-0.116 0.694s-0.188 0.408-0.332 0.572-0.317 0.293-0.52 0.387c-0.203 0.093-0.43 0.14-0.681 0.14s-0.477-0.047-0.678-0.14c-0.201-0.094-0.373-0.223-0.517-0.387-0.143-0.164-0.254-0.355-0.332-0.572-0.077-0.217-0.116-0.448-0.116-0.694 0-0.242 0.039-0.472 0.116-0.689 0.078-0.216 0.189-0.407 0.332-0.571 0.144-0.165 0.316-0.294 0.517-0.39s0.427-0.144 0.678-0.144m0-0.616c-0.328 0-0.635 0.063-0.918 0.188-0.282 0.126-0.529 0.297-0.739 0.514-0.21 0.216-0.374 0.471-0.492 0.763-0.119 0.292-0.178 0.604-0.178 0.937 0 0.334 0.059 0.645 0.178 0.935 0.118 0.29 0.281 0.543 0.489 0.76 0.208 0.216 0.454 0.388 0.739 0.513s0.593 0.188 0.921 0.188 0.635-0.063 0.921-0.188c0.285-0.125 0.532-0.297 0.742-0.513 0.21-0.217 0.374-0.47 0.493-0.76s0.178-0.601 0.178-0.935c0-0.333-0.059-0.645-0.178-0.937s-0.283-0.547-0.493-0.763c-0.21-0.217-0.457-0.388-0.742-0.514-0.286-0.125-0.593-0.188-0.921-0.188" fill="#848d8c"/>
    </g>
    <g id="g186" transform="translate(481.82 66.202)">
     <path id="path188" d="m0 0c-0.05-0.082-0.128-0.176-0.233-0.281s-0.232-0.204-0.383-0.297c-0.15-0.094-0.324-0.173-0.52-0.237s-0.413-0.095-0.65-0.095c-0.338 0-0.646 0.059-0.924 0.177-0.279 0.119-0.518 0.284-0.719 0.497-0.201 0.212-0.357 0.463-0.469 0.753-0.112 0.289-0.168 0.605-0.168 0.948 0 0.333 0.056 0.645 0.168 0.937s0.268 0.548 0.469 0.767 0.442 0.392 0.722 0.517c0.281 0.125 0.592 0.188 0.934 0.188 0.242 0 0.459-0.03 0.651-0.089 0.191-0.059 0.359-0.133 0.503-0.222 0.143-0.089 0.267-0.186 0.369-0.291 0.103-0.105 0.186-0.205 0.25-0.301l-0.465-0.397c-0.055 0.077-0.12 0.158-0.195 0.243-0.076 0.084-0.166 0.16-0.271 0.229s-0.226 0.125-0.362 0.171c-0.137 0.046-0.295 0.069-0.473 0.069-0.251 0-0.475-0.048-0.674-0.144-0.198-0.096-0.367-0.226-0.507-0.39-0.139-0.165-0.245-0.356-0.318-0.575s-0.11-0.452-0.11-0.699c0-0.246 0.039-0.478 0.114-0.694 0.075-0.217 0.181-0.405 0.318-0.565s0.303-0.285 0.5-0.377c0.196-0.091 0.414-0.137 0.657-0.137 0.205 0 0.382 0.027 0.53 0.079 0.149 0.053 0.274 0.116 0.377 0.189 0.103 0.072 0.187 0.147 0.253 0.222s0.122 0.138 0.168 0.188l0.458-0.383z" fill="#848d8c"/>
    </g>
    <path id="path190" d="m482.31 69.967h0.657v-4.566h-0.657v4.566z" fill="#848d8c"/>
    <g id="g192" transform="translate(483.57 69.967)">
     <path id="path194" d="m0 0h2.875v-0.582h-2.218v-1.328h1.67v-0.589h-1.67v-1.478h2.382v-0.589h-3.039v4.566z" fill="#848d8c"/>
    </g>
    <g id="g196" transform="translate(488.44 69.392)">
     <path id="path198" d="m0 0h-1.636v0.575h3.922v-0.575h-1.629v-3.991h-0.657v3.991z" fill="#848d8c"/>
    </g>
    <g id="g200" transform="translate(492.48 67.441)">
     <path id="path202" d="m0 0-1.574 2.526h0.732l1.191-1.951 1.191 1.951h0.705l-1.581-2.526v-2.04h-0.664v2.04z" fill="#848d8c"/>
    </g>
    <g id="g204" transform="translate(451.1 60.192)">
     <path id="path206" d="m0 0c0.259 0 0.493 0.049 0.703 0.149 0.21 0.098 0.389 0.233 0.538 0.402 0.148 0.17 0.262 0.367 0.342 0.591 0.081 0.224 0.121 0.46 0.121 0.71 0 0.255-0.04 0.494-0.121 0.718-0.08 0.224-0.194 0.42-0.342 0.59-0.149 0.17-0.328 0.303-0.538 0.4-0.21 0.096-0.444 0.145-0.703 0.145s-0.493-0.049-0.7-0.145c-0.208-0.097-0.385-0.23-0.534-0.4-0.148-0.17-0.263-0.366-0.342-0.59-0.081-0.224-0.121-0.463-0.121-0.718 0-0.25 0.04-0.486 0.121-0.71 0.079-0.224 0.194-0.421 0.342-0.591 0.149-0.169 0.326-0.304 0.534-0.402 0.207-0.1 0.441-0.149 0.7-0.149m0-0.636c-0.339 0-0.655 0.065-0.947 0.194-0.293 0.13-0.547 0.306-0.764 0.53s-0.386 0.487-0.509 0.789c-0.122 0.301-0.184 0.624-0.184 0.968s0.062 0.666 0.184 0.965c0.123 0.299 0.291 0.561 0.505 0.785 0.215 0.224 0.469 0.4 0.764 0.53 0.294 0.13 0.612 0.195 0.951 0.195s0.656-0.065 0.951-0.195c0.294-0.13 0.55-0.306 0.767-0.53s0.386-0.486 0.509-0.785c0.122-0.299 0.184-0.621 0.184-0.965s-0.062-0.667-0.184-0.968c-0.123-0.302-0.292-0.565-0.509-0.789s-0.473-0.4-0.767-0.53c-0.295-0.129-0.612-0.194-0.951-0.194" fill="#848d8c"/>
    </g>
    <g id="g208" transform="translate(453.97 64.392)">
     <path id="path210" d="m0 0h2.962v-0.608h-2.283v-1.442h1.739v-0.601h-1.739v-2.064h-0.679v4.715z" fill="#848d8c"/>
    </g>
    <g id="g212" transform="translate(462.85 60.546)">
     <path id="path214" d="m0 0c-0.099-0.137-0.219-0.265-0.361-0.385-0.141-0.12-0.298-0.225-0.47-0.315-0.172-0.089-0.358-0.16-0.558-0.212-0.201-0.052-0.409-0.078-0.626-0.078-0.358 0-0.686 0.061-0.983 0.184-0.296 0.123-0.553 0.294-0.766 0.513-0.215 0.219-0.381 0.478-0.499 0.777-0.118 0.3-0.177 0.628-0.177 0.987 0 0.348 0.059 0.675 0.177 0.979s0.284 0.567 0.499 0.791c0.213 0.224 0.471 0.401 0.77 0.53 0.299 0.13 0.63 0.195 0.993 0.195 0.439 0 0.821-0.08 1.149-0.24 0.327-0.161 0.599-0.392 0.816-0.693l-0.728-0.7c-0.141 0.198-0.309 0.357-0.501 0.477-0.194 0.12-0.425 0.18-0.693 0.18-0.212 0-0.403-0.038-0.573-0.116s-0.313-0.185-0.431-0.322-0.209-0.296-0.273-0.477c-0.063-0.182-0.095-0.374-0.095-0.576 0-0.208 0.032-0.401 0.095-0.58 0.064-0.179 0.155-0.334 0.273-0.467 0.118-0.132 0.259-0.235 0.424-0.311 0.165-0.075 0.351-0.113 0.558-0.113 0.17 0 0.317 0.018 0.442 0.053 0.125 0.036 0.236 0.083 0.332 0.142 0.097 0.059 0.183 0.127 0.258 0.205 0.076 0.077 0.149 0.157 0.22 0.237l0.728-0.665z" fill="#39607a"/>
    </g>
    <g id="g216" transform="translate(463.13 64.392)">
     <path id="path218" d="m0 0h1.068v-1.81h2.042v1.81h1.068v-4.715h-1.068v1.937h-2.042v-1.937h-1.068v4.715z" fill="#39607a"/>
    </g>
    <g id="g220" transform="translate(467.91 64.392)">
     <path id="path222" d="m0 0h3.224v-0.933h-2.156v-0.919h1.675v-0.905h-1.675v-1.018h2.311v-0.94h-3.379v4.715z" fill="#39607a"/>
    </g>
    <g id="g224" transform="translate(471.94 64.392)">
     <path id="path226" d="m0 0h1.011l1.23-2.213 1.202 2.213h1.018l0.219-4.715h-1.068l-0.134 3.082-0.975-1.838h-0.552l-1.031 1.817-0.121-3.061h-1.018l0.219 4.715z" fill="#39607a"/>
    </g>
    <path id="path228" d="m477.18 64.392h1.068v-4.715h-1.068v4.715z" fill="#39607a"/>
    <g id="g230" transform="translate(479.24 61.083)">
     <path id="path232" d="m0 0c0.061-0.066 0.133-0.133 0.216-0.202 0.082-0.068 0.174-0.13 0.275-0.187 0.102-0.057 0.212-0.102 0.333-0.138 0.12-0.035 0.249-0.053 0.385-0.053 0.08 0 0.16 0.012 0.24 0.035 0.08 0.024 0.153 0.058 0.22 0.103 0.065 0.045 0.119 0.099 0.159 0.163 0.04 0.063 0.06 0.135 0.06 0.215 0 0.175-0.085 0.31-0.255 0.407-0.17 0.096-0.438 0.192-0.806 0.286-0.179 0.042-0.345 0.104-0.498 0.184-0.154 0.08-0.285 0.177-0.396 0.29s-0.197 0.243-0.258 0.389-0.092 0.308-0.092 0.487c0 0.198 0.035 0.384 0.106 0.559 0.071 0.174 0.178 0.328 0.322 0.463 0.144 0.134 0.322 0.24 0.537 0.318s0.468 0.117 0.76 0.117c0.24 0 0.452-0.025 0.636-0.075 0.184-0.049 0.341-0.108 0.471-0.176 0.129-0.069 0.235-0.139 0.317-0.212 0.083-0.074 0.145-0.131 0.188-0.173l-0.615-0.679c-0.052 0.042-0.112 0.088-0.18 0.138-0.069 0.049-0.145 0.095-0.23 0.137-0.085 0.043-0.178 0.078-0.279 0.106-0.102 0.029-0.209 0.043-0.322 0.043-0.076 0-0.15-0.012-0.223-0.036-0.073-0.023-0.139-0.055-0.198-0.095s-0.106-0.087-0.141-0.141c-0.035-0.055-0.053-0.112-0.053-0.174 0-0.16 0.085-0.289 0.255-0.388 0.169-0.099 0.402-0.182 0.699-0.248 0.175-0.042 0.345-0.1 0.513-0.173 0.167-0.073 0.317-0.169 0.449-0.286 0.132-0.118 0.237-0.263 0.318-0.435 0.08-0.172 0.12-0.381 0.12-0.626 0-0.212-0.047-0.407-0.142-0.586-0.094-0.18-0.222-0.335-0.385-0.467-0.162-0.132-0.353-0.235-0.573-0.308-0.218-0.073-0.455-0.109-0.71-0.109-0.235 0-0.45 0.022-0.643 0.067s-0.368 0.104-0.523 0.177c-0.156 0.073-0.296 0.156-0.421 0.251-0.125 0.094-0.232 0.191-0.321 0.289l0.685 0.743z" fill="#39607a"/>
    </g>
    <g id="g234" transform="translate(483.96 63.451)">
     <path id="path236" d="m0 0h-1.527v0.94h4.122v-0.94h-1.52v-3.775h-1.075v3.775z" fill="#39607a"/>
    </g>
    <g id="g238" transform="translate(488.65 62.264)">
     <path id="path240" d="m0 0c0.198 0 0.353 0.059 0.466 0.177 0.114 0.118 0.17 0.266 0.17 0.445 0 0.193-0.056 0.346-0.17 0.46-0.113 0.113-0.268 0.169-0.466 0.169h-0.658v-1.251h0.658zm-1.697 2.128h1.754c0.272 0 0.513-0.039 0.72-0.117 0.208-0.078 0.381-0.184 0.52-0.318s0.243-0.291 0.311-0.47c0.069-0.179 0.103-0.37 0.103-0.573 0-0.306-0.068-0.573-0.202-0.802s-0.324-0.411-0.569-0.548l1.046-1.887h-1.173l-0.877 1.732h-0.594v-1.732h-1.039v4.715z" fill="#39607a"/>
    </g>
    <g id="g242" transform="translate(491.96 61.649)">
     <path id="path244" d="m0 0-1.654 2.743h1.208l1.026-1.782 0.996 1.782h1.16l-1.654-2.736v-1.979h-1.082v1.972z" fill="#39607a"/>
    </g>
    <g id="g246" transform="translate(448.04 70.203)">
     <path id="path248" d="m0 0-0.081 1.454h0.003l-0.071 1.45c-0.127-0.007-0.253-0.016-0.378-0.028-0.12-0.012-0.239-0.027-0.357-0.045-0.116-0.017-0.232-0.037-0.347-0.06-0.117-0.023-0.234-0.05-0.35-0.079-0.123-0.03-0.246-0.064-0.366-0.101-0.115-0.035-0.229-0.073-0.341-0.113-0.107-0.039-0.213-0.08-0.318-0.123-0.111-0.046-0.22-0.095-0.328-0.146-0.115-0.054-0.228-0.11-0.34-0.17-0.105-0.057-0.209-0.116-0.312-0.177-0.1-0.061-0.199-0.124-0.297-0.189-0.099-0.067-0.197-0.135-0.293-0.207-0.102-0.075-0.202-0.152-0.299-0.233-0.093-0.076-0.183-0.154-0.272-0.235-0.093-0.084-0.184-0.172-0.273-0.261l1.026-1.026 0.002 0.002 1.012-1.007c0.769 0.768 1.818 1.251 2.98 1.294" fill="#ded9c9"/>
    </g>
    <g id="g250" transform="translate(436.25 51.037)">
     <path id="path252" d="m0 0-0.919-1.123-0.919-1.124-0.919-1.124c0.292-0.238 0.589-0.469 0.892-0.694 0.297-0.219 0.599-0.432 0.907-0.638 0.312-0.209 0.631-0.411 0.954-0.606 0.341-0.205 0.688-0.401 1.04-0.589 0.332-0.177 0.669-0.346 1.01-0.507 0.323-0.153 0.65-0.298 0.981-0.437 0.347-0.144 0.699-0.281 1.054-0.409 0.374-0.135 0.752-0.261 1.134-0.377 0.36-0.109 0.723-0.209 1.09-0.302 0.357-0.089 0.717-0.171 1.081-0.244 0.368-0.074 0.739-0.139 1.113-0.195 0.392-0.06 0.787-0.109 1.186-0.148l0.144 1.444 0.144 1.444c-0.348 0.035-0.694 0.078-1.038 0.129-0.327 0.049-0.652 0.108-0.974 0.172-0.318 0.064-0.634 0.136-0.946 0.214l0.354 1.408c-0.298 0.075-0.593 0.157-0.885 0.246-0.311 0.094-0.619 0.195-0.923 0.305-0.289 0.104-0.575 0.216-0.857 0.333-0.269 0.113-0.535 0.231-0.797 0.355-0.278 0.131-0.552 0.269-0.822 0.413-0.286 0.153-0.569 0.312-0.846 0.479-0.263 0.157-0.522 0.322-0.777 0.492-0.25 0.167-0.495 0.34-0.737 0.519-0.246 0.182-0.488 0.37-0.725 0.564" fill="#f9ed20"/>
    </g>
    <g id="g254" transform="translate(443.62 47.331)">
     <path id="path256" d="m0 0-0.354-1.408c0.312-0.078 0.628-0.15 0.945-0.214 0.323-0.065 0.648-0.122 0.975-0.172 0.343-0.052 0.69-0.094 1.038-0.128l0.145 1.443v0.001c-0.324 0.032-0.645 0.071-0.965 0.119-0.304 0.046-0.606 0.1-0.905 0.16-0.295 0.059-0.588 0.126-0.879 0.199" fill="#dacd25"/>
    </g>
    <g id="g258" transform="translate(448.25 76.018)">
     <path id="path260" d="m0 0c-0.168 0-0.334-0.005-0.5-0.013-0.177-0.008-0.352-0.021-0.527-0.038-0.166-0.017-0.332-0.037-0.496-0.062-0.162-0.024-0.323-0.052-0.483-0.084-0.163-0.032-0.326-0.069-0.487-0.11-0.172-0.042-0.342-0.089-0.51-0.14-0.16-0.048-0.318-0.101-0.474-0.158-0.149-0.053-0.297-0.11-0.443-0.171-0.154-0.064-0.307-0.131-0.457-0.202-0.16-0.075-0.317-0.154-0.472-0.237l0.682-1.28 0.683-1.28c0.111 0.059 0.224 0.116 0.339 0.17 0.108 0.051 0.217 0.099 0.329 0.145 0.105 0.043 0.21 0.085 0.317 0.124 0.113 0.04 0.226 0.078 0.341 0.113 0.093 0.028 0.186 0.055 0.28 0.079 0.029 0.007 0.058 0.015 0.087 0.022s0.059 0.015 0.089 0.022c0.02 0.004 0.039 0.009 0.059 0.013 0.067 0.016 0.134 0.03 0.202 0.044 0.014 0.002 0.028 0.005 0.042 0.008 0.101 0.019 0.203 0.037 0.305 0.052 0.1 0.015 0.201 0.028 0.303 0.039 0.018 0.002 0.036 0.004 0.053 0.005 0.02 0.002 0.039 0.004 0.059 0.006 0.087 0.008 0.175 0.015 0.264 0.019 0.018 0.001 0.037 0.002 0.056 0.003 0.119 0.006 0.238 0.009 0.359 0.009v1.451 1.451" fill="#405e2c"/>
    </g>
    <g id="g262" transform="translate(440.28 72.229)">
     <path id="path264" d="m0 0-1.123 0.919-1.123 0.918c0.143 0.175 0.289 0.347 0.441 0.514 0.143 0.158 0.29 0.313 0.44 0.464 0.159 0.16 0.322 0.315 0.488 0.466 0.159 0.143 0.32 0.283 0.486 0.418 0.174 0.143 0.352 0.281 0.534 0.416 0.172 0.126 0.346 0.249 0.524 0.368 0.174 0.116 0.35 0.228 0.53 0.336 0.183 0.109 0.369 0.215 0.557 0.316l0.683-1.281 0.683-1.28c-0.147-0.079-0.292-0.161-0.435-0.247-0.14-0.084-0.278-0.172-0.413-0.262-0.139-0.093-0.275-0.188-0.409-0.287-0.142-0.105-0.281-0.213-0.417-0.325-0.129-0.106-0.255-0.215-0.378-0.326-0.13-0.118-0.257-0.24-0.381-0.364-0.117-0.118-0.232-0.239-0.343-0.362-0.118-0.131-0.232-0.265-0.344-0.401" fill="#365766"/>
    </g>
    <g id="g266" transform="translate(448.25 78.92)">
     <path id="path268" d="m0 0c-0.215 0-0.428-0.006-0.64-0.016-0.227-0.011-0.452-0.027-0.676-0.05-0.213-0.021-0.425-0.048-0.635-0.079-0.209-0.031-0.415-0.067-0.619-0.107-0.211-0.042-0.419-0.089-0.626-0.14-0.22-0.055-0.437-0.115-0.652-0.18-0.205-0.063-0.408-0.13-0.608-0.203-0.192-0.068-0.381-0.142-0.568-0.219-0.198-0.082-0.393-0.168-0.586-0.259-0.204-0.096-0.406-0.197-0.605-0.303v-0.001l0.682-1.28 0.683-1.28h0.001c0.155 0.083 0.312 0.162 0.472 0.237 0.15 0.071 0.303 0.138 0.457 0.202 0.146 0.06 0.294 0.117 0.443 0.171 0.156 0.057 0.314 0.109 0.474 0.158 0.168 0.051 0.338 0.098 0.51 0.14 0.161 0.041 0.324 0.077 0.487 0.11 0.16 0.031 0.321 0.06 0.483 0.084 0.164 0.024 0.33 0.045 0.496 0.061 0.175 0.018 0.35 0.031 0.527 0.039 0.166 0.008 0.332 0.013 0.5 0.013v1.451 1.451" fill="#395427"/>
    </g>
    <g id="g270" transform="translate(445.26 57.436)">
     <path id="path272" d="m0 0-0.493-1.365c0.164-0.059 0.331-0.114 0.499-0.165 0.158-0.047 0.318-0.092 0.479-0.132 0.157-0.039 0.315-0.076 0.475-0.108 0.162-0.032 0.325-0.061 0.49-0.086 0.172-0.026 0.346-0.047 0.521-0.064 0.164-0.017 0.329-0.03 0.496-0.038 0.173-0.008 0.347-0.013 0.523-0.013v1.451h-0.001c-0.15 0-0.3 0.004-0.448 0.011-0.143 0.007-0.285 0.018-0.426 0.032-0.15 0.015-0.299 0.033-0.447 0.056-0.141 0.021-0.281 0.046-0.421 0.074-0.137 0.027-0.273 0.058-0.407 0.092-0.139 0.034-0.276 0.073-0.411 0.113-0.145 0.044-0.288 0.091-0.429 0.142" fill="#365766"/>
    </g>
    <g id="g276" transform="translate(447.89 73.107)">
     <path id="path278" d="m0 0l-0.057-0.003c-0.088-0.005-0.176-0.011-0.263-0.019-0.02-0.002-0.039-0.004-0.059-0.006-0.018-0.002-0.035-0.003-0.053-0.005-0.102-0.011-0.203-0.024-0.303-0.039-0.102-0.016-0.204-0.033-0.305-0.052-0.014-0.003-0.028-0.006-0.042-0.009-0.068-0.013-0.135-0.028-0.202-0.043-0.02-0.004-0.04-0.009-0.06-0.013-0.029-0.007-0.059-0.015-0.088-0.022s-0.058-0.015-0.087-0.022c-0.094-0.025-0.187-0.051-0.28-0.079-0.114-0.035-0.228-0.073-0.34-0.114-0.108-0.038-0.214-0.079-0.318-0.123-0.111-0.046-0.22-0.094-0.329-0.145-0.114-0.054-0.227-0.111-0.339-0.171-0.105-0.056-0.209-0.115-0.312-0.177-0.101-0.061-0.199-0.124-0.297-0.189-0.099-0.066-0.197-0.135-0.293-0.206-0.102-0.076-0.202-0.153-0.3-0.233-0.092-0.076-0.183-0.155-0.271-0.235-0.093-0.085-0.184-0.172-0.273-0.262l1.026-1.026c0.071 0.072 0.144 0.143 0.219 0.211 0.071 0.065 0.144 0.128 0.218 0.189 0.079 0.064 0.159 0.127 0.241 0.187 0.077 0.058 0.156 0.113 0.235 0.167 0.079 0.052 0.158 0.102 0.239 0.151 0.082 0.05 0.166 0.097 0.251 0.143 0.089 0.048 0.18 0.094 0.273 0.137 0.087 0.041 0.175 0.08 0.264 0.117 0.084 0.035 0.169 0.068 0.255 0.099 0.09 0.033 0.182 0.063 0.274 0.091 0.097 0.03 0.195 0.057 0.294 0.082 0.094 0.023 0.187 0.044 0.282 0.063 0.093 0.018 0.185 0.035 0.279 0.049 0.095 0.014 0.191 0.026 0.287 0.035 0.1 0.011 0.202 0.018 0.304 0.023l-0.07 1.449" fill="#365766"/>
    </g>
    <g id="g280" transform="translate(439.25 87.228)">
     <path id="path282" d="m0 0c-0.328-0.135-0.652-0.278-0.972-0.429-0.34-0.16-0.675-0.328-1.005-0.505-0.313-0.167-0.621-0.342-0.924-0.524-0.298-0.178-0.592-0.364-0.88-0.557-0.296-0.196-0.586-0.399-0.871-0.61-0.301-0.222-0.597-0.452-0.886-0.69-0.274-0.224-0.543-0.456-0.805-0.693l1.071-0.89c0.132 0.113 0.265 0.225 0.4 0.335 0.289 0.238 0.585 0.468 0.886 0.69 0.285 0.211 0.575 0.414 0.87 0.61 0.289 0.193 0.582 0.379 0.88 0.557 0.304 0.182 0.612 0.357 0.925 0.524 0.33 0.177 0.665 0.345 1.004 0.505 0.217 0.102 0.436 0.201 0.657 0.296l-0.35 1.381" fill="#f9ed20"/>
    </g>
    <g id="g284" transform="translate(448.25 87.626)">
     <path id="path286" d="m0 0c-0.356 0-0.71-0.009-1.062-0.026-0.377-0.018-0.75-0.045-1.121-0.082-0.354-0.035-0.706-0.079-1.055-0.131-0.345-0.051-0.687-0.111-1.027-0.178-0.349-0.068-0.694-0.146-1.037-0.231-0.365-0.091-0.726-0.191-1.084-0.299-0.339-0.104-0.676-0.216-1.008-0.335-0.318-0.114-0.632-0.235-0.942-0.363-0.106-0.044-0.211-0.088-0.316-0.133l0.372-1.469c-0.285-0.117-0.183-0.078-0.461-0.209-0.294-0.139-0.585-0.284-0.871-0.437-0.271-0.145-0.539-0.297-0.802-0.455-0.259-0.155-0.513-0.316-0.763-0.483-0.257-0.171-0.508-0.347-0.755-0.529-0.262-0.194-0.519-0.392-0.77-0.598-0.237-0.195-0.155-0.119-0.383-0.325l-1.189 0.987c-0.136-0.117-0.272-0.237-0.405-0.357-0.277-0.251-0.548-0.508-0.811-0.773-0.251-0.25-0.494-0.507-0.732-0.77-0.252-0.277-0.496-0.561-0.732-0.851-0.225-0.274-0.442-0.554-0.653-0.839-0.206-0.279-0.406-0.562-0.599-0.851-0.196-0.294-0.386-0.594-0.569-0.898-0.192-0.32-0.376-0.646-0.553-0.977-0.166-0.312-0.324-0.629-0.476-0.949-0.143-0.304-0.28-0.611-0.409-0.922-0.136-0.326-0.264-0.657-0.384-0.991-0.126-0.351-0.244-0.706-0.353-1.066-0.102-0.338-0.196-0.679-0.282-1.023-0.084-0.336-0.16-0.674-0.228-1.016-0.07-0.346-0.131-0.694-0.183-1.046-0.055-0.368-0.101-0.74-0.137-1.114-0.034-0.35-0.061-0.703-0.078-1.059-0.018-0.36-0.027-0.722-0.027-1.087v-0.031h1.452 1.451l-0.001 0.031c0 0.315 0.008 0.628 0.024 0.939 0.015 0.308 0.038 0.614 0.068 0.918 0.031 0.325 0.071 0.647 0.118 0.966 0.046 0.306 0.099 0.608 0.159 0.908 0.059 0.296 0.126 0.59 0.198 0.881 0.075 0.299 0.157 0.594 0.245 0.888 0.094 0.311 0.196 0.62 0.305 0.925 0.104 0.289 0.215 0.576 0.333 0.859 0.113 0.269 0.232 0.536 0.355 0.799 0.131 0.278 0.269 0.553 0.414 0.823 0.152 0.288 0.311 0.571 0.479 0.849 0.158 0.264 0.322 0.523 0.492 0.778 0.168 0.251 0.342 0.497 0.52 0.739 0.183 0.247 0.372 0.49 0.565 0.728h0.001c0.205 0.251 0.416 0.498 0.634 0.739 0.206 0.228 0.418 0.451 0.635 0.668 0.229 0.229 0.464 0.452 0.703 0.67 0.228 0.206 0.461 0.406 0.699 0.602 0.251 0.205 0.508 0.404 0.769 0.597 0.248 0.183 0.499 0.359 0.755 0.53 0.251 0.167 0.505 0.328 0.763 0.483 0.264 0.158 0.531 0.309 0.803 0.455 0.286 0.153 0.577 0.298 0.871 0.437 0.278 0.131 0.559 0.255 0.843 0.372 0.27 0.111 0.542 0.217 0.818 0.316 0.288 0.103 0.58 0.2 0.875 0.29 0.31 0.095 0.623 0.181 0.939 0.259 0.298 0.074 0.598 0.142 0.9 0.202 0.295 0.058 0.592 0.11 0.891 0.154 0.303 0.045 0.608 0.084 0.915 0.114 0.322 0.032 0.646 0.056 0.973 0.071 0.305 0.015 0.612 0.024 0.921 0.024v1.451 1.451" fill="#ded9c9"/>
    </g>
    <g id="g288" transform="translate(448.25 84.724)">
     <path id="path290" d="m0 0c-0.309 0-0.616-0.009-0.921-0.023-0.327-0.016-0.651-0.04-0.973-0.072-0.307-0.03-0.612-0.068-0.915-0.113-0.299-0.045-0.596-0.097-0.891-0.155-0.302-0.06-0.602-0.127-0.9-0.202-0.316-0.078-0.629-0.164-0.939-0.259-0.295-0.09-0.587-0.187-0.875-0.29-0.276-0.099-0.548-0.205-0.818-0.316-0.284-0.117-0.565-0.241-0.843-0.372-0.294-0.139-0.585-0.284-0.871-0.437-0.272-0.145-0.539-0.297-0.803-0.455-0.258-0.155-0.512-0.316-0.763-0.483-0.256-0.171-0.507-0.347-0.755-0.53-0.261-0.193-0.518-0.391-0.769-0.597-0.238-0.196-0.471-0.396-0.699-0.602-0.239-0.218-0.474-0.44-0.703-0.67-0.217-0.217-0.429-0.44-0.635-0.668-0.218-0.241-0.429-0.488-0.634-0.739l1.123-0.919 1.123-0.918 1.123-0.919c0.158 0.194 0.321 0.385 0.489 0.57 0.159 0.176 0.322 0.348 0.489 0.516 0.176 0.176 0.357 0.349 0.542 0.516 0.176 0.159 0.355 0.314 0.538 0.464 0.194 0.159 0.392 0.312 0.594 0.461 0.19 0.141 0.384 0.277 0.581 0.409 0.193 0.128 0.389 0.253 0.589 0.373 0.202 0.121 0.409 0.238 0.618 0.35 0.22 0.119 0.445 0.23 0.672 0.337 0.214 0.101 0.43 0.197 0.65 0.288 0.208 0.085 0.417 0.167 0.629 0.243 0.223 0.08 0.448 0.155 0.676 0.224 0.113 0.035 0.228 0.068 0.343 0.1 0.005 0.001 0.011 0.003 0.015 0.004 0.001 0 0.002 0.001 0.003 0.001 0.022 0.006 0.044 0.012 0.066 0.018h0.002c0.005 0.002 0.011 0.003 0.016 0.005 0.093 0.024 0.186 0.049 0.279 0.072 0.173 0.043 0.348 0.083 0.524 0.12 0.057 0.012 0.114 0.024 0.17 0.035 0.227 0.045 0.456 0.085 0.687 0.119 0.234 0.035 0.468 0.065 0.705 0.088 0.055 0.006 0.11 0.011 0.165 0.016 0.194 0.017 0.389 0.03 0.585 0.039 0.235 0.011 0.472 0.018 0.711 0.018v1.451 1.451 1.451m-18.983-18.982v-0.001l0.001-0.031-0.001 0.032" fill="#c6bfa6"/>
    </g>
    <g id="g292" transform="translate(448.25 80.371)">
     <path id="path294" d="m0 0c-0.238 0-0.475-0.007-0.711-0.018-0.196-0.009-0.391-0.023-0.584-0.04 0.194 0.017 0.389 0.031 0.585 0.04 0.235 0.011 0.472 0.018 0.71 0.018m-3.022-0.315c-0.176-0.037-0.351-0.077-0.525-0.12-0.093-0.024-0.186-0.048-0.278-0.073 0.092 0.025 0.186 0.049 0.279 0.073 0.173 0.043 0.348 0.083 0.524 0.12m-0.82-0.197s-0.001 0-0.001-0.001c0 0.001 0.001 0.001 0.001 0.001m-0.068-0.019h-0.002 0.002m-0.017-0.005c-0.116-0.031-0.23-0.065-0.344-0.099-0.228-0.07-0.452-0.145-0.675-0.224-0.212-0.077-0.422-0.158-0.63-0.244-0.219-0.09-0.436-0.186-0.65-0.287-0.227-0.107-0.451-0.219-0.672-0.337h0.001c0.22 0.118 0.444 0.23 0.672 0.337 0.214 0.101 0.43 0.196 0.65 0.287 0.208 0.086 0.417 0.167 0.629 0.244 0.223 0.079 0.448 0.154 0.675 0.224 0.114 0.034 0.229 0.068 0.344 0.099" fill="#c2b726"/>
    </g>
    <g id="g296" transform="translate(433.54 77.74)">
     <path id="path298" d="m0 0c-0.194-0.237-0.383-0.48-0.566-0.727-0.178-0.243-0.352-0.489-0.519-0.739-0.17-0.255-0.334-0.515-0.493-0.778-0.167-0.279-0.326-0.562-0.479-0.849-0.144-0.271-0.282-0.545-0.413-0.824-0.124-0.263-0.243-0.529-0.356-0.799-0.117-0.283-0.228-0.569-0.332-0.859-0.11-0.305-0.211-0.613-0.305-0.925-0.089-0.293-0.171-0.589-0.245-0.888-0.073-0.291-0.14-0.584-0.199-0.881-0.06-0.3-0.113-0.602-0.158-0.907-0.048-0.319-0.088-0.642-0.119-0.966-0.03-0.304-0.053-0.61-0.067-0.918-0.016-0.311-0.024-0.624-0.024-0.939 0 0.315 0.008 0.627 0.024 0.938 0.014 0.308 0.037 0.614 0.067 0.918 0.031 0.325 0.071 0.647 0.119 0.967 0.045 0.305 0.098 0.607 0.158 0.907 0.059 0.296 0.126 0.59 0.199 0.881 0.074 0.299 0.156 0.595 0.245 0.888 0.094 0.312 0.195 0.62 0.305 0.925 0.104 0.289 0.215 0.576 0.332 0.859 0.113 0.27 0.232 0.536 0.356 0.799 0.131 0.279 0.269 0.553 0.413 0.824 0.153 0.287 0.312 0.57 0.479 0.848 0.159 0.264 0.323 0.523 0.493 0.779 0.167 0.25 0.341 0.496 0.519 0.738 0.183 0.248 0.372 0.49 0.566 0.728" fill="#8bb0af"/>
    </g>
    <g id="g300" transform="translate(439.6 85.847)">
     <path id="path302" d="m0 0c-0.221-0.095-0.44-0.194-0.657-0.296-0.339-0.16-0.674-0.328-1.004-0.504-0.313-0.168-0.621-0.343-0.925-0.525-0.298-0.178-0.591-0.364-0.88-0.557-0.295-0.196-0.585-0.4-0.87-0.61-0.301-0.222-0.597-0.452-0.887-0.69-0.134-0.11-0.267-0.222-0.399-0.335l1.189-0.988c0.228 0.206 0.145 0.13 0.383 0.325 0.251 0.206 0.508 0.405 0.769 0.598 0.248 0.182 0.499 0.359 0.755 0.529 0.251 0.167 0.505 0.329 0.764 0.484 0.263 0.158 0.53 0.309 0.802 0.454 0.286 0.154 0.577 0.299 0.871 0.437 0.278 0.131 0.176 0.092 0.461 0.21l-0.372 1.468" fill="#dacd25"/>
    </g>
    <g id="g304" transform="translate(451.65 88.055)">
     <path id="path306" d="m0 0-0.103-0.677-0.218-1.435-0.218-1.434v-0.001c0.305-0.046 0.607-0.1 0.908-0.16l0.287 1.423c0.319-0.065 0.635-0.137 0.949-0.216 0.322-0.081 0.641-0.17 0.956-0.266 0.336-0.102 0.668-0.212 0.996-0.331 0.312-0.113 0.62-0.233 0.925-0.36 0.291-0.122 0.577-0.251 0.86-0.385 0.3-0.142 0.596-0.291 0.887-0.447 0.308-0.165 0.613-0.337 0.912-0.518 0.284-0.171 0.563-0.348 0.837-0.532 0.269-0.181 0.534-0.369 0.794-0.562 0.266-0.197 0.527-0.401 0.782-0.61 0.271-0.222 0.536-0.45 0.794-0.685l0.976 1.074 0.455 0.502c-0.285 0.26-0.577 0.513-0.876 0.758-0.281 0.232-0.57 0.457-0.863 0.675-0.287 0.213-0.579 0.42-0.877 0.62-0.302 0.203-0.61 0.4-0.923 0.589-0.33 0.199-0.666 0.39-1.007 0.572-0.322 0.173-0.648 0.337-0.978 0.494-0.314 0.149-0.63 0.291-0.951 0.425-0.336 0.141-0.677 0.274-1.021 0.399-0.363 0.131-0.729 0.253-1.1 0.366-0.348 0.106-0.7 0.204-1.056 0.294-0.346 0.087-0.695 0.166-1.048 0.237-0.356 0.072-0.716 0.136-1.079 0.191" fill="#ded9c9"/>
    </g>
    <g id="g308" transform="translate(451.11 84.509)">
     <path id="path310" d="m0 0-0.218-1.434-0.218-1.435c0.258-0.039 0.514-0.085 0.769-0.136l0.288 1.422 0.287 1.422c-0.3 0.061-0.603 0.115-0.908 0.161" fill="#c7c0a6"/>
    </g>
    <g id="g312" transform="translate(462 80.859)">
     <path id="path314" d="m0 0-0.975-1.075h0.001c0.227-0.207 0.449-0.419 0.666-0.637 0.229-0.229 0.45-0.465 0.667-0.705 0.206-0.229 0.406-0.462 0.6-0.7l-1.123-0.919-1.122-0.919c0.173-0.212 0.341-0.43 0.504-0.652l-1.168-0.86c0.139-0.191 0.275-0.385 0.406-0.583 0.128-0.193 0.252-0.389 0.371-0.589l1.245 0.744 1.246 0.744 1.246 0.744 1.245 0.744c-0.166 0.279-0.339 0.553-0.518 0.823-0.183 0.276-0.372 0.547-0.568 0.813-0.207 0.282-0.42 0.559-0.641 0.829-0.21 0.257-0.425 0.508-0.646 0.753-0.233 0.259-0.472 0.513-0.718 0.759-0.234 0.235-0.473 0.463-0.718 0.686" fill="#ded9c9"/>
    </g>
    <g id="g316" transform="translate(461.02 79.784)">
     <path id="path318" d="m0 0-0.975-1.075-0.975-1.074c0.193-0.176 0.381-0.356 0.564-0.54 0.194-0.194 0.382-0.394 0.566-0.598 0.174-0.193 0.343-0.391 0.508-0.593h0.001l1.122 0.919 1.123 0.919c-0.195 0.238-0.394 0.471-0.6 0.699-0.217 0.241-0.438 0.477-0.667 0.706-0.217 0.217-0.439 0.43-0.666 0.637h-0.001" fill="#c6bfa6"/>
    </g>
    <g id="g320" transform="translate(452.3 85.771)">
     <path id="path322" d="m0 0-0.288-1.422v-0.001c0.297-0.059 0.591-0.127 0.882-0.2 0.3-0.075 0.596-0.158 0.889-0.247 0.312-0.095 0.62-0.197 0.925-0.308 0.29-0.104 0.576-0.216 0.859-0.334 0.27-0.114 0.536-0.233 0.8-0.358 0.278-0.132 0.552-0.27 0.823-0.415 0.287-0.154 0.57-0.314 0.848-0.481 0.263-0.159 0.523-0.324 0.777-0.495 0.251-0.168 0.497-0.342 0.738-0.522 0.247-0.183 0.489-0.372 0.727-0.567 0.251-0.206 0.497-0.418 0.737-0.636l0.976 1.074c-0.259 0.235-0.524 0.463-0.795 0.685-0.255 0.21-0.516 0.413-0.782 0.611-0.26 0.193-0.525 0.38-0.794 0.561-0.274 0.184-0.553 0.362-0.837 0.533-0.299 0.18-0.604 0.352-0.912 0.517-0.291 0.156-0.587 0.305-0.887 0.447-0.283 0.135-0.57 0.264-0.86 0.385-0.305 0.128-0.613 0.248-0.925 0.361-0.328 0.119-0.66 0.228-0.996 0.33-0.315 0.096-0.634 0.185-0.956 0.266-0.314 0.079-0.63 0.152-0.949 0.216" fill="#c6bfa6"/>
    </g>
    <g id="g324" transform="translate(452.02 84.348)">
     <path id="path326" d="m0 0-0.287-1.422-0.288-1.422c0.252-0.051 0.5-0.108 0.747-0.17 0.254-0.064 0.504-0.134 0.753-0.21 0.264-0.08 0.526-0.167 0.784-0.26 0.246-0.089 0.488-0.184 0.728-0.284 0.229-0.096 0.454-0.197 0.678-0.304 0.235-0.111 0.468-0.228 0.697-0.351 0.244-0.13 0.483-0.266 0.719-0.408 0.222-0.135 0.442-0.274 0.658-0.42 0.212-0.142 0.421-0.289 0.625-0.442 0.209-0.155 0.415-0.315 0.616-0.48 0.213-0.175 0.421-0.355 0.625-0.54l0.975 1.075 0.975 1.074c-0.24 0.219-0.487 0.431-0.737 0.637-0.238 0.194-0.48 0.383-0.727 0.567-0.242 0.179-0.488 0.353-0.738 0.521-0.254 0.171-0.514 0.337-0.778 0.495-0.277 0.168-0.56 0.328-0.847 0.481-0.271 0.145-0.545 0.284-0.824 0.416-0.263 0.124-0.529 0.244-0.799 0.357-0.283 0.119-0.57 0.231-0.859 0.335-0.305 0.111-0.614 0.212-0.926 0.307-0.293 0.09-0.589 0.172-0.888 0.248-0.291 0.073-0.586 0.141-0.882 0.2" fill="#b2a989"/>
    </g>
    <g id="g328" transform="translate(450.29 75.814)">
     <path id="path330" d="m0 0-0.288-1.422h0.001c0.138-0.028 0.275-0.06 0.41-0.094 0.14-0.035 0.278-0.073 0.414-0.115 0.145-0.045 0.289-0.092 0.431-0.143 0.135-0.049 0.268-0.102 0.4-0.157 0.126-0.053 0.25-0.108 0.372-0.167 0.13-0.061 0.258-0.126 0.384-0.193 0.133-0.072 0.265-0.147 0.394-0.225 0.123-0.074 0.244-0.151 0.363-0.231 0.115-0.078 0.23-0.159 0.343-0.243 0.114-0.085 0.227-0.173 0.338-0.264 0.117-0.096 0.231-0.195 0.342-0.298 0.106-0.096 0.209-0.195 0.31-0.296 0.107-0.107 0.21-0.217 0.31-0.329 0.096-0.107 0.189-0.215 0.279-0.326 0.096-0.118 0.188-0.237 0.277-0.359l1.169 0.86 1.168 0.86 1.169 0.86 1.168 0.86c-0.148 0.201-0.301 0.4-0.459 0.594l-1.123-0.919-1.122-0.919-1.123-0.919c-0.106 0.13-0.214 0.256-0.325 0.38-0.118 0.13-0.238 0.258-0.361 0.382-0.118 0.118-0.238 0.233-0.361 0.346-0.13 0.118-0.263 0.233-0.399 0.345-0.129 0.106-0.26 0.209-0.394 0.308-0.131 0.098-0.264 0.192-0.4 0.283-0.138 0.093-0.278 0.183-0.421 0.269-0.15 0.091-0.304 0.178-0.459 0.261-0.147 0.078-0.296 0.153-0.446 0.225-0.143 0.068-0.288 0.133-0.434 0.194-0.154 0.064-0.309 0.125-0.466 0.182-0.165 0.06-0.332 0.115-0.501 0.167-0.159 0.048-0.32 0.093-0.482 0.134-0.158 0.04-0.317 0.076-0.478 0.109" fill="#39607a"/>
    </g>
    <g id="g332" transform="translate(449.27 75.967)">
     <path id="path334" d="m0 0-0.144-1.444c0.151-0.015 0.302-0.033 0.451-0.056 0.142-0.021 0.282-0.047 0.422-0.075l0.287 1.422c-0.162 0.033-0.326 0.062-0.491 0.087-0.174 0.027-0.349 0.049-0.525 0.066" fill="#405e2c"/>
    </g>
    <g id="g336" transform="translate(449.85 81.742)">
     <path id="path338" d="m0 0-0.144-1.444c0.25-0.024 0.499-0.055 0.746-0.093 0.235-0.035 0.468-0.077 0.7-0.124l-0.288-1.422-0.288-1.422-0.287-1.423h0.001c0.16-0.032 0.32-0.069 0.478-0.109 0.162-0.041 0.322-0.085 0.481-0.134 0.169-0.051 0.336-0.107 0.501-0.167 0.157-0.057 0.313-0.117 0.466-0.182 0.146-0.061 0.291-0.126 0.434-0.194 0.151-0.071 0.299-0.147 0.446-0.225 0.155-0.083 0.309-0.17 0.459-0.261 0.143-0.086 0.284-0.176 0.422-0.269 0.135-0.091 0.268-0.185 0.399-0.283 0.134-0.099 0.265-0.202 0.394-0.307 0.136-0.112 0.269-0.228 0.399-0.346 0.123-0.112 0.243-0.227 0.361-0.346 0.123-0.124 0.244-0.252 0.361-0.382 0.111-0.124 0.219-0.25 0.325-0.38l1.123 0.919 1.123 0.919 1.122 0.919c-0.15 0.184-0.304 0.364-0.462 0.54-0.168 0.185-0.338 0.367-0.515 0.544-0.167 0.168-0.338 0.332-0.513 0.491-0.185 0.169-0.375 0.332-0.568 0.491-0.184 0.15-0.37 0.296-0.561 0.437-0.186 0.139-0.375 0.273-0.568 0.403-0.197 0.132-0.397 0.259-0.599 0.382-0.215 0.129-0.433 0.252-0.654 0.371-0.209 0.112-0.421 0.218-0.635 0.32-0.203 0.096-0.409 0.189-0.617 0.276-0.218 0.091-0.438 0.177-0.662 0.258-0.235 0.085-0.473 0.164-0.713 0.237-0.227 0.069-0.455 0.133-0.685 0.191-0.225 0.057-0.451 0.108-0.68 0.155-0.231 0.046-0.465 0.088-0.7 0.123l0.218 1.435c-0.271 0.041-0.544 0.075-0.82 0.102" fill="#365766"/>
    </g>
    <g id="g340" transform="translate(449.71 80.298)">
     <path id="path342" d="m0 0-0.144-1.444-0.145-1.444-0.144-1.444c0.177-0.017 0.351-0.039 0.525-0.065 0.165-0.025 0.329-0.055 0.492-0.087l0.287 1.422 0.287 1.423 0.288 1.422c-0.232 0.047-0.465 0.088-0.7 0.124-0.247 0.037-0.495 0.068-0.746 0.093" fill="#395427"/>
    </g>
    <g id="g344" transform="translate(460.71 75.905)">
     <path id="path346" d="m0 0-1.123-0.919c0.158-0.194 0.31-0.392 0.459-0.594l1.168 0.86c-0.163 0.222-0.331 0.44-0.504 0.653" fill="#365766"/>
    </g>
    <g id="g348" transform="translate(459.07 77.635)">
     <path id="path350" d="m0 0-0.975-1.075c0.175-0.159 0.346-0.323 0.513-0.491 0.177-0.176 0.347-0.358 0.515-0.544 0.158-0.176 0.312-0.356 0.462-0.54l1.123 0.919v0.001c-0.165 0.201-0.334 0.399-0.509 0.592-0.183 0.204-0.371 0.404-0.564 0.598-0.184 0.185-0.373 0.365-0.565 0.54" fill="#314f56"/>
    </g>
    <g id="g352" transform="translate(451.44 81.504)">
     <path id="path354" d="m0 0c0.251-0.051 0.5-0.108 0.747-0.17 0.253-0.064 0.504-0.134 0.753-0.209 0.264-0.081 0.526-0.167 0.784-0.261 0.245-0.089 0.488-0.183 0.728-0.284 0.229-0.095 0.454-0.197 0.677-0.303 0.236-0.112 0.469-0.229 0.698-0.352 0.243-0.13 0.483-0.265 0.719-0.407 0.222-0.135 0.442-0.275 0.658-0.42 0.212-0.142 0.42-0.29 0.625-0.442 0.209-0.155 0.414-0.316 0.616-0.481 0.212-0.175 0.421-0.354 0.625-0.539l-0.975-1.075c-0.186 0.169-0.375 0.332-0.569 0.491-0.183 0.15-0.37 0.296-0.56 0.438-0.186 0.138-0.376 0.272-0.569 0.402-0.196 0.132-0.396 0.259-0.599 0.382-0.214 0.129-0.432 0.252-0.654 0.371-0.208 0.112-0.42 0.218-0.634 0.32-0.204 0.096-0.409 0.189-0.617 0.276-0.218 0.091-0.439 0.178-0.663 0.258-0.234 0.086-0.472 0.164-0.712 0.237-0.227 0.069-0.455 0.133-0.686 0.191-0.224 0.057-0.451 0.109-0.679 0.155l0.287 1.422" fill="#2c4749"/>
    </g>
    <g id="g356" transform="translate(450.67 81.64)">
     <path id="path358" d="m0 0-0.218-1.435c0.235-0.035 0.469-0.077 0.7-0.123l0.287 1.422c-0.254 0.051-0.51 0.097-0.769 0.136" fill="#314f56"/>
    </g>
   </g>
  </g>
 </g>
</svg>
